<svg id="图层_1" data-name="图层 1" xmlns="http://www.w3.org/2000/svg" viewBox="0 0 90 30"><title>close_black</title><path d="M15.7,15l5.2-5.1a1.1,1.1,0,0,0,0-.8h-.8L15,14.3,9.9,9.1H9.1a1.1,1.1,0,0,0,0,.8L14.3,15,9.1,20.1a1.1,1.1,0,0,0,0,.8h.8L15,15.7l5.1,5.2h.8a1.1,1.1,0,0,0,0-.8Z" opacity="0.85" style="isolation:isolate"/><rect x="30" width="30" height="30" rx="4" fill="#f04134"/><path d="M45.7,15l5.2-5.1a1.1,1.1,0,0,0,0-.8h-.8L45,14.3,39.9,9.1h-.8a1.1,1.1,0,0,0,0,.8L44.3,15l-5.2,5.1a1.1,1.1,0,0,0,0,.8h.8L45,15.7l5.1,5.2h.8a1.1,1.1,0,0,0,0-.8Z" fill="#fff" opacity="0.85" style="isolation:isolate"/><rect x="60" width="30" height="30" rx="4" fill="#d73435"/><path d="M75.7,15l5.2-5.1a1.1,1.1,0,0,0,0-.8h-.8L75,14.3,69.9,9.1h-.8a1.1,1.1,0,0,0,0,.8L74.3,15l-5.2,5.1a1.1,1.1,0,0,0,0,.8h.8L75,15.7l5.1,5.2h.8a1.1,1.1,0,0,0,0-.8Z" fill="#fff" opacity="0.85" style="isolation:isolate"/></svg>