<?xml version="1.0" encoding="UTF-8"?>
<svg width="16px" height="16px" viewBox="0 0 16 16" version="1.1" xmlns="http://www.w3.org/2000/svg" xmlns:xlink="http://www.w3.org/1999/xlink">
    <!-- Generator: Sketch 59 (86127) - https://sketch.com -->
    <title>icon/蓝牙-蓝</title>
    <desc>Created with Sketch.</desc>
    <g id="icon/蓝牙-蓝" stroke="none" stroke-width="1" fill="none" fill-rule="evenodd">
        <g id="bluetooth-symbolic" transform="translate(2.000000, 0.000000)">
            <g id="图层_2_1_">
                <g id="编组" transform="translate(5.000000, 0.000000)" fill="#3790FA" fill-rule="nonzero">
                    <path d="M1,1.8 L4.7,4.1 L1,7 L1,1.8 M1,9 L4.7,11.9 L1,14.2 L1,9 M1,0.8 C0.5,0.8 0,1.2 0,1.8 L0,14.2 C0,14.8 0.5,15.2 1,15.2 C1.2,15.2 1.4,15.2 1.5,15 L5.2,12.7 C5.8,12.3 5.8,11.5 5.3,11.1 L1.3,8 L5.3,4.9 C5.8,4.5 5.8,3.6 5.2,3.3 L1.5,1 C1.4,0.9 1.2,0.8 1,0.8 L1,0.8 Z" id="形状"></path>
                </g>
                <line x1="5.7" y1="8.2" x2="0.6" y2="4.2" id="路径" stroke="#3790FA" stroke-linecap="round" stroke-linejoin="round"></line>
                <line x1="0.6" y1="11.9" x2="5.9" y2="7.7" id="路径" stroke="#3790FA" stroke-linecap="round" stroke-linejoin="round"></line>
            </g>
        </g>
    </g>
</svg>