<?xml version="1.0" encoding="UTF-8"?>
<svg width="16px" height="17px" viewBox="0 0 16 17" version="1.1" xmlns="http://www.w3.org/2000/svg" xmlns:xlink="http://www.w3.org/1999/xlink">
    <!-- Generator: Sketch 59 (86127) - https://sketch.com -->
    <title>icon/sidebar-qdgl-b</title>
    <desc>Created with Sketch.</desc>
    <g id="icon/sidebar-qdgl-b" stroke="none" stroke-width="1" fill="none" fill-rule="evenodd" opacity="0.75">
        <g id="icon/sidebar-qdgl" transform="translate(1.000000, 0.000000)">
            <path d="M14,0 C14.5522847,0 15,0.44771525 15,1 L15,4 C15,4.55228475 14.5522847,5 14,5 L1,5 C0.44771525,5 0,4.55228475 0,4 L0,1 C0,0.44771525 0.44771525,0 1,0 L14,0 Z M14,1 L1,1 L1,4 L14,4 L14,1 Z M13,2 L13,3 L12,3 L12,2 L13,2 Z M11,2 L11,3 L10,3 L10,2 L11,2 Z" id="形状结合" fill="#1F2022" fill-rule="nonzero"></path>
            <path d="M14,12 C14.5522847,12 15,12.4477153 15,13 L15,16 C15,16.5522847 14.5522847,17 14,17 L1,17 C0.44771525,17 0,16.5522847 0,16 L0,13 C0,12.4477153 0.44771525,12 1,12 L14,12 Z M14,13 L1,13 L1,16 L14,16 L14,13 Z M13,14 L13,15 L12,15 L12,14 L13,14 Z M11,14 L11,15 L10,15 L10,14 L11,14 Z" id="形状结合备份" fill="#1F2022" fill-rule="nonzero"></path>
            <rect id="矩形备份-2" stroke="#1F2022" x="0.5" y="6.5" width="14" height="4" rx="1"></rect>
            <rect id="矩形" stroke="#1F2022" x="2.5" y="8.5" width="10" height="1"></rect>
        </g>
    </g>
</svg>