<?xml version="1.0" encoding="UTF-8"?>
<svg width="16px" height="16px" viewBox="0 0 16 16" version="1.1" xmlns="http://www.w3.org/2000/svg" xmlns:xlink="http://www.w3.org/1999/xlink">
    <!-- Generator: Sketch 59 (86127) - https://sketch.com -->
    <title>icon/显卡-蓝</title>
    <desc>Created with Sketch.</desc>
    <g id="icon/显卡-蓝" stroke="none" stroke-width="1" fill="none" fill-rule="evenodd">
        <g id="显卡-蓝" transform="translate(0.000000, 2.000000)">
            <path d="M6.5,12 C6.77614237,12 7,12.2238576 7,12.5 C7,12.7761424 6.77614237,13 6.5,13 L2.5,13 C2.22385763,13 2,12.7761424 2,12.5 C2,12.2238576 2.22385763,12 2.5,12 L6.5,12 Z M6.5,13 L2.5,13 C2.77614237,13 3,12.7761424 3,12.5 C3,12.2238576 2.77614237,12 2.5,12 L6.5,12 C6.22385763,12 6,12.2238576 6,12.5 C6,12.7761424 6.22385763,13 6.5,13 Z" id="矩形" fill="#3790FA" fill-rule="nonzero"></path>
            <path d="M13.5,12 C13.7761424,12 14,12.2238576 14,12.5 C14,12.7761424 13.7761424,13 13.5,13 L9.5,13 C9.22385763,13 9,12.7761424 9,12.5 C9,12.2238576 9.22385763,12 9.5,12 L13.5,12 Z M13.5,13 L9.5,13 C9.77614237,13 10,12.7761424 10,12.5 C10,12.2238576 9.77614237,12 9.5,12 L13.5,12 C13.2238576,12 13,12.2238576 13,12.5 C13,12.7761424 13.2238576,13 13.5,13 Z" id="矩形备份-5" fill="#3790FA" fill-rule="nonzero"></path>
            <rect id="矩形" stroke="#3790FA" x="0.5" y="0.5" width="15" height="10" rx="1"></rect>
            <rect id="矩形" stroke="#3790FA" x="9.5" y="3.5" width="4" height="4" rx="2"></rect>
            <rect id="矩形备份-4" fill="#3790FA" x="11" y="5" width="1" height="1" rx="0.5"></rect>
            <path d="M6.5,3 C6.77614237,3 7,3.22385763 7,3.5 C7,3.77614237 6.77614237,4 6.5,4 L2.5,4 C2.22385763,4 2,3.77614237 2,3.5 C2,3.22385763 2.22385763,3 2.5,3 L6.5,3 Z M6.5,4 L2.5,4 C2.77614237,4 3,3.77614237 3,3.5 C3,3.22385763 2.77614237,3 2.5,3 L6.5,3 C6.22385763,3 6,3.22385763 6,3.5 C6,3.77614237 6.22385763,4 6.5,4 Z" id="矩形" fill="#3790FA" fill-rule="nonzero"></path>
            <path d="M6.5,5 C6.77614237,5 7,5.22385763 7,5.5 C7,5.77614237 6.77614237,6 6.5,6 L2.5,6 C2.22385763,6 2,5.77614237 2,5.5 C2,5.22385763 2.22385763,5 2.5,5 L6.5,5 Z M6.5,6 L2.5,6 C2.77614237,6 3,5.77614237 3,5.5 C3,5.22385763 2.77614237,5 2.5,5 L6.5,5 C6.22385763,5 6,5.22385763 6,5.5 C6,5.77614237 6.22385763,6 6.5,6 Z" id="矩形备份" fill="#3790FA" fill-rule="nonzero"></path>
            <path d="M6.5,7 C6.77614237,7 7,7.22385763 7,7.5 C7,7.77614237 6.77614237,8 6.5,8 L2.5,8 C2.22385763,8 2,7.77614237 2,7.5 C2,7.22385763 2.22385763,7 2.5,7 L6.5,7 Z M6.5,8 L2.5,8 C2.77614237,8 3,7.77614237 3,7.5 C3,7.22385763 2.77614237,7 2.5,7 L6.5,7 C6.22385763,7 6,7.22385763 6,7.5 C6,7.77614237 6.22385763,8 6.5,8 Z" id="矩形备份-2" fill="#3790FA" fill-rule="nonzero"></path>
        </g>
    </g>
</svg>