<?xml version="1.0" encoding="UTF-8"?>
<svg width="16px" height="16px" viewBox="0 0 16 16" version="1.1" xmlns="http://www.w3.org/2000/svg" xmlns:xlink="http://www.w3.org/1999/xlink">
    <!-- Generator: Sketch 59 (86127) - https://sketch.com -->
    <title>icon/sidebar-yjjc-b</title>
    <desc>Created with Sketch.</desc>
    <g id="icon/sidebar-yjjc-b" stroke="none" stroke-width="1" fill="none" fill-rule="evenodd" opacity="0.75">
        <g id="icon/sidebar-yjjc">
            <path d="M15,0 C15.5522847,0 16,0.44771525 16,1 L16,11 C16,11.5522847 15.5522847,12 15,12 L8,12 L8,11 L15,11 L15,1 L5,1 L5,8 L4,8 L4,1 C4,0.44771525 4.44771525,0 5,0 L15,0 Z" id="形状结合" fill="#1F2022" fill-rule="nonzero"></path>
            <rect id="矩形备份-7" stroke="#1F2022" x="0.5" y="7.5" width="8" height="8" rx="1"></rect>
            <g id="编组-3" transform="translate(10.535534, 5.242641) rotate(-45.000000) translate(-10.535534, -5.242641) translate(7.035534, 2.742641)" fill="#1F2022">
                <rect id="矩形" x="-3.41060513e-13" y="2" width="5" height="1"></rect>
                <polygon id="矩形" transform="translate(4.500000, 2.500000) scale(-1, 1) rotate(45.000000) translate(-4.500000, -2.500000) " points="3 1 6 4 3 4"></polygon>
            </g>
            <rect id="矩形备份-25" stroke="#1F2022" x="2.5" y="9.5" width="4" height="4" rx="1"></rect>
        </g>
    </g>
</svg>