<?xml version="1.0" encoding="UTF-8"?>
<svg width="16px" height="16px" viewBox="0 0 16 16" version="1.1" xmlns="http://www.w3.org/2000/svg" xmlns:xlink="http://www.w3.org/1999/xlink">
    <!-- Generator: Sketch 59 (86127) - https://sketch.com -->
    <title>icon/sidebar-yjcs-b</title>
    <desc>Created with Sketch.</desc>
    <g id="icon/sidebar-yjcs-b" stroke="none" stroke-width="1" fill="none" fill-rule="evenodd" opacity="0.75">
        <g id="icon/sidebar-yjcs" transform="translate(0.000000, 1.000000)">
            <g>
                <path d="M10.1166211,2.00672773 L10,2 L9,2 L9,1 C9,0.44771525 9.44771525,1.01453063e-16 10,0 L15,0 C15.5522847,-1.01453063e-16 16,0.44771525 16,1 L16,12 C16,12.5522847 15.5522847,13 15,13 L10,13 C9.44771525,13 9,12.5522847 9,12 L9,11 L10,11 C10.5128358,11 10.9355072,10.6139598 10.9932723,10.1166211 L11,10 L14,10 L14,9 L11,9 L11,7 L14,7 L14,6 L11,6 L11,4 L14,4 L14,3 L11,3 C11,2.48716416 10.6139598,2.06449284 10.1166211,2.00672773 Z" id="形状结合" fill="#1F2022"></path>
                <rect id="矩形" stroke="#1F2022" x="0.5" y="2.5" width="10" height="8" rx="1"></rect>
                <rect id="矩形" stroke="#1F2022" x="3.5" y="12.5" width="4" height="1"></rect>
            </g>
        </g>
    </g>
</svg>