<?xml version="1.0" encoding="UTF-8"?>
<svg width="16px" height="16px" viewBox="0 0 16 16" version="1.1" xmlns="http://www.w3.org/2000/svg" xmlns:xlink="http://www.w3.org/1999/xlink">
    <!-- Generator: Sketch 59 (86127) - https://sketch.com -->
    <title>icon/硬盘</title>
    <desc>Created with Sketch.</desc>
    <g id="icon/硬盘" stroke="none" stroke-width="1" fill="none" fill-rule="evenodd">
        <path d="M9,6 C9,5.4480069 8.5519847,5 7.99998125,5 C7.4479778,5 7,5.4480069 7,6 C7,6.5519931 7.4480153,7 8.00001875,7 C8.5520222,7 9,6.5519931 9,6 Z" id="路径" fill="#3790FA" fill-rule="nonzero"></path>
        <rect id="矩形" stroke="#3790FA" x="1.5" y="0.5" width="13" height="15" rx="1"></rect>
        <path d="M6.2041599,11.2541926 C6.18927349,10.5705056 6.44339153,9.88998824 6.94415555,9.38232704 C7.93626359,8.37723444 9.54570534,8.37723444 10.5395195,9.38455142 C10.708369,9.55775661 10.9834918,9.79285479 11.3670945,10.0953728 C12.0897436,9.27186479 12.5,8.20314687 12.5,7.0656601 C12.5,4.54111829 10.4853383,2.5 8,2.5 C5.51463953,2.5 3.5,4.54110561 3.5,7.0656601 C3.5,8.91829218 4.5950831,10.5444777 6.2041599,11.2541926 Z" id="路径" stroke="#3790FA" fill-rule="nonzero"></path>
        <path d="M8.86249601,10.8635601 C8.87336272,10.8785802 8.88456148,10.8940625 8.89610478,10.9100234 C9.05762006,11.133598 9.05762006,11.133598 9.24205173,11.3891663 C9.39775647,11.6048401 9.51737903,11.7701962 9.6348786,11.9320065 C9.65204933,11.9556494 9.65204933,11.9556494 9.66922194,11.9792818 C10.23754,12.761271 10.6179773,13.2656308 10.7177186,13.3653714 C10.898328,13.5446858 11.1884537,13.5446858 11.3665057,13.3667624 C11.544706,13.1884399 11.544706,12.8985488 11.3664905,12.7189409 C11.2717113,12.6240886 10.7662593,12.2437542 9.97189272,11.6665218 C9.95094863,11.6513043 9.95094863,11.6513043 9.929997,11.636088 C9.69665452,11.4666386 8.9700255,10.9415047 8.91115986,10.8988394 C8.89442933,10.8867132 8.87821386,10.874958 8.86249601,10.8635601 Z M8.35629702,10.4822646 C8.35435944,10.4803543 8.35250688,10.4784881 8.35072543,10.4766552 C8.35649011,10.4823258 8.36302388,10.4869807 8.37006621,10.4906016 Z M8.47370166,10.4736165 C8.47375233,10.4735659 8.47380296,10.4735153 8.47385354,10.4734647 L8.47355009,10.4737684 C8.47360071,10.4737178 8.47365127,10.4736671 8.47370174,10.4736164 Z" id="路径" stroke="#3790FA" fill-rule="nonzero"></path>
        <path d="M4,13.5 C4,13.2240034 4.22400345,13 4.5,13 C4.77599655,13 5,13.2240034 5,13.5 C5,13.7759966 4.77599655,14 4.5,14 C4.22400345,14 4,13.7759966 4,13.5 Z" id="路径" fill="#3790FA" fill-rule="nonzero"></path>
    </g>
</svg>