<?xml version="1.0" encoding="UTF-8"?>
<svg width="16px" height="16px" viewBox="0 0 16 16" version="1.1" xmlns="http://www.w3.org/2000/svg" xmlns:xlink="http://www.w3.org/1999/xlink">
    <!-- Generator: Sketch 59 (86127) - https://sketch.com -->
    <title>icon/主机</title>
    <desc>Created with Sketch.</desc>
    <g id="icon/主机" stroke="none" stroke-width="1" fill="none" fill-rule="evenodd">
        <path d="M8.5,13 C9.32842712,13 10,13.6715729 10,14.5 C10,15.3284271 9.32842712,16 8.5,16 C7.67157288,16 7,15.3284271 7,14.5 C7,13.6715729 7.67157288,13 8.5,13 Z M8.5,14 C8.22385763,14 8,14.2238576 8,14.5 C8,14.7761424 8.22385763,15 8.5,15 C8.77614237,15 9,14.7761424 9,14.5 C9,14.2238576 8.77614237,14 8.5,14 Z" id="椭圆形" fill="#3790FA" fill-rule="nonzero"></path>
        <path d="M8,14 L8,15 L1,15 L1,14 L8,14 Z M7,15 L7,14 L7.5,14.5 L7,15 Z" id="矩形" fill="#3790FA" fill-rule="nonzero"></path>
        <rect id="矩形" fill="#3790FA" x="8" y="12" width="1" height="2"></rect>
        <path d="M16,14 L16,15 L9,15 L9,14 L16,14 Z M15.5,14.5 L15,15 L15,14 L15.5,14.5 Z" id="矩形备份" fill="#3790FA" fill-rule="nonzero"></path>
        <path d="M15,6 C15.5522847,6 16,6.44771525 16,7 L16,11 C16,11.5522847 15.5522847,12 15,12 L2,12 C1.44771525,12 1,11.5522847 1,11 L1,7 C1,6.44771525 1.44771525,6 2,6 L15,6 Z M2,7 L2,11 L15,11 L15,7 L2,7 Z" id="矩形" fill="#3790FA" fill-rule="nonzero"></path>
        <path d="M15,1 C15.5522847,1 16,1.44771525 16,2 L16,6 C16,6.55228475 15.5522847,7 15,7 L2,7 C1.44771525,7 1,6.55228475 1,6 L1,2 C1,1.44771525 1.44771525,1 2,1 L15,1 Z M2,2 L2,6 L15,6 L15,2 L2,2 Z" id="矩形备份-2" fill="#3790FA" fill-rule="nonzero"></path>
        <path d="M4,3 L4,5 L3,5 L3,3 L4,3 Z M3.5,4.5 L3,4 L3.5,3.5 L4,4 L3.5,4.5 Z" id="矩形" fill="#3790FA" fill-rule="nonzero"></path>
        <path d="M4,8 L4,10 L3,10 L3,8 L4,8 Z M3.5,9.5 L3,9 L3.5,8.5 L4,9 L3.5,9.5 Z" id="矩形备份-5" fill="#3790FA" fill-rule="nonzero"></path>
        <path d="M6,3 L6,5 L5,5 L5,3 L6,3 Z M5.5,4.5 L5,4 L5.5,3.5 L6,4 L5.5,4.5 Z" id="矩形备份-3" fill="#3790FA" fill-rule="nonzero"></path>
        <path d="M6,8 L6,10 L5,10 L5,8 L6,8 Z M5.5,9.5 L5,9 L5.5,8.5 L6,9 L5.5,9.5 Z" id="矩形备份-6" fill="#3790FA" fill-rule="nonzero"></path>
        <path d="M8,3 L8,5 L7,5 L7,3 L8,3 Z M7.5,4.5 L7,4 L7.5,3.5 L8,4 L7.5,4.5 Z" id="矩形备份-4" fill="#3790FA" fill-rule="nonzero"></path>
        <path d="M8,8 L8,10 L7,10 L7,8 L8,8 Z M7.5,9.5 L7,9 L7.5,8.5 L8,9 L7.5,9.5 Z" id="矩形备份-7" fill="#3790FA" fill-rule="nonzero"></path>
    </g>
</svg>