<?xml version="1.0" encoding="UTF-8"?>
<svg width="16px" height="16px" viewBox="0 0 16 16" version="1.1" xmlns="http://www.w3.org/2000/svg" xmlns:xlink="http://www.w3.org/1999/xlink">
    <!-- Generator: Sketch 59 (86127) - https://sketch.com -->
    <title>icon/iso</title>
    <desc>Created with Sketch.</desc>
    <g id="icon/iso" stroke="none" stroke-width="1" fill="none" fill-rule="evenodd">
        <path d="M8,16 C5.47389559,16 3.22124974,14.8291847 1.75511684,13.0006084 L3.10265013,13.0015996 C4.36504505,14.2378445 6.09351705,15 8,15 C9.90648295,15 11.6349549,14.2378445 12.8973499,13.0015996 L14.2448832,13.0006084 C12.7787503,14.8291847 10.5261044,16 8,16 Z M8,0 C10.5265625,0 12.7795672,1.17123994 14.2456806,3.00038632 L12.8983435,2.99937371 C11.635862,1.76255555 9.90698321,1 8,1 C6.09301679,1 4.36413797,1.76255555 3.10165647,2.99937371 L1.75431938,3.00038632 C3.22043284,1.17123994 5.47343755,0 8,0 Z" id="形状结合备份" fill="#3790FA" fill-rule="nonzero"></path>
        <rect id="矩形" stroke="#3790FA" x="0.5" y="4.5" width="15" height="7" rx="1"></rect>
        <path d="M4,6 L4,10 L3,10 L3,6 L4,6 Z M3.5,9.5 L3,9 L4,9 L3.5,9.5 Z" id="矩形" fill="#3790FA" fill-rule="nonzero"></path>
        <path d="M11,6 C12.1045695,6 13,6.8954305 13,8 C13,9.1045695 12.1045695,10 11,10 C9.8954305,10 9,9.1045695 9,8 C9,6.8954305 9.8954305,6 11,6 Z M11,7 C10.4477153,7 10,7.44771525 10,8 C10,8.55228475 10.4477153,9 11,9 C11.5522847,9 12,8.55228475 12,8 C12,7.44771525 11.5522847,7 11,7 Z" id="椭圆形" fill="#3790FA" fill-rule="nonzero"></path>
        <path d="M6.52371542,10 C5.90711462,10 5.37944664,9.77894737 5,9.42631579 L5.32608696,9.09473684 C5.64031621,9.38421053 6.07905138,9.57368421 6.52964427,9.57368421 C7.09881423,9.57368421 7.44268775,9.32105263 7.44268775,8.94210526 C7.44268775,8.54736842 7.1284585,8.42105263 6.71936759,8.25789474 L6.09090909,8.01578947 C5.68774704,7.86315789 5.20750988,7.58947368 5.20750988,7.02631579 C5.20750988,6.43157895 5.78853755,6 6.5770751,6 C7.09288538,6 7.54940711,6.19473684 7.85770751,6.47894737 L7.56719368,6.78947368 C7.30039526,6.56842105 6.98023715,6.42631579 6.5770751,6.42631579 C6.08498024,6.42631579 5.76482213,6.64736842 5.76482213,6.99473684 C5.76482213,7.36842105 6.14426877,7.51052632 6.48221344,7.63684211 L7.10474308,7.87368421 C7.60869565,8.06842105 8,8.33157895 8,8.90526316 C8,9.51578947 7.43083004,10 6.52371542,10 Z" id="S备份" stroke="#3790FA" stroke-width="0.4" fill="#3790FA" fill-rule="nonzero"></path>
    </g>
</svg>