<?xml version="1.0" encoding="UTF-8"?>
<svg width="16px" height="16px" viewBox="0 0 16 16" version="1.1" xmlns="http://www.w3.org/2000/svg" xmlns:xlink="http://www.w3.org/1999/xlink">
    <!-- Generator: Sketch 59 (86127) - https://sketch.com -->
    <title>icon/内核架构</title>
    <desc>Created with Sketch.</desc>
    <g id="icon/内核架构" stroke="none" stroke-width="1" fill="none" fill-rule="evenodd">
        <path d="M3,13.5833333 C3,13.8185209 3.17323002,14 3.375,14 L3.375,14 L9,14 L9,13 C9,12.4477153 9.44771525,12 10,12 L15,12 C15.5522847,12 16,12.4477153 16,13 L16,15 C16,15.5522847 15.5522847,16 15,16 L10,16 C9.44771525,16 9,15.5522847 9,15 L3.375,15 C2.61027167,15 2,14.3606678 2,13.5833333 L2,13.5833333 L2,9 L9,9 L9,8 C9,7.44771525 9.44771525,7 10,7 L15,7 C15.5522847,7 16,7.44771525 16,8 L16,10 C16,10.5522847 15.5522847,11 15,11 L10,11 C9.44771525,11 9,10.5522847 9,10 L3,10 Z M15,13 L10,13 L10,15 L15,15 L15,13 Z M15,8 L10,8 L10,10 L15,10 L15,8 Z M4,1 C4.55228475,1 5,1.44771525 5,2 L5,5 C5,5.55228475 4.55228475,6 4,6 L1,6 C0.44771525,6 0,5.55228475 0,5 L0,2 C0,1.44771525 0.44771525,1 1,1 L4,1 Z M15,1 C15.5522847,1 16,1.44771525 16,2 L16,5 C16,5.55228475 15.5522847,6 15,6 L7,6 C6.44771525,6 6,5.55228475 6,5 L6,2 C6,1.44771525 6.44771525,1 7,1 L15,1 Z M4,2 L1,2 L1,5 L4,5 L4,2 Z M15,2 L7,2 L7,5 L15,5 L15,2 Z" id="形状结合" fill="#3790FA" fill-rule="nonzero"></path>
        <path d="M3,6 L3,10 L2,10 L2,6 L3,6 Z M2.5,9.5 L2,9 L3,9 L2.5,9.5 Z" id="矩形" fill="#3790FA" fill-rule="nonzero"></path>
    </g>
</svg>