<?xml version="1.0" encoding="UTF-8"?>
<svg width="16px" height="16px" viewBox="0 0 16 16" version="1.1" xmlns="http://www.w3.org/2000/svg" xmlns:xlink="http://www.w3.org/1999/xlink">
    <!-- Generator: Sketch 59 (86127) - https://sketch.com -->
    <title>icon/内核版本</title>
    <desc>Created with Sketch.</desc>
    <g id="icon/内核版本" stroke="none" stroke-width="1" fill="none" fill-rule="evenodd">
        <g id="编组" transform="translate(1.000000, 1.000000)">
            <path d="M14,0 C14.5522847,0 15,0.44771525 15,1 L15,14 C15,14.5522847 14.5522847,15 14,15 L1,15 C0.44771525,15 0,14.5522847 0,14 L0,1 C0,0.44771525 0.44771525,0 1,0 L14,0 Z M1,1 L1,14 L14,14 L14,1 L1,1 Z" id="矩形" fill="#3790FA" fill-rule="nonzero"></path>
            <path d="M3.5,7 C4.32842712,7 5,7.67157288 5,8.5 C5,9.32842712 4.32842712,10 3.5,10 C2.67157288,10 2,9.32842712 2,8.5 C2,7.67157288 2.67157288,7 3.5,7 Z M3.5,8 C3.22385763,8 3,8.22385763 3,8.5 C3,8.77614237 3.22385763,9 3.5,9 C3.77614237,9 4,8.77614237 4,8.5 C4,8.22385763 3.77614237,8 3.5,8 Z" id="椭圆形" fill="#3790FA" fill-rule="nonzero"></path>
            <path d="M7.5,3 C8.32842712,3 9,3.67157288 9,4.5 C9,5.32842712 8.32842712,6 7.5,6 C6.67157288,6 6,5.32842712 6,4.5 C6,3.67157288 6.67157288,3 7.5,3 Z M7.5,4 C7.22385763,4 7,4.22385763 7,4.5 C7,4.77614237 7.22385763,5 7.5,5 C7.77614237,5 8,4.77614237 8,4.5 C8,4.22385763 7.77614237,4 7.5,4 Z" id="椭圆形备份" fill="#3790FA" fill-rule="nonzero"></path>
            <path d="M4,2 L4,8 L3,8 L3,2 L4,2 Z M3.5,7.5 L3,7 L4,7 L3.5,7.5 Z" id="矩形" fill="#3790FA" fill-rule="nonzero"></path>
            <path d="M8,5 L8,13 L7,13 L7,5 L8,5 Z M7,12 L8,12 L7.5,12.5 L7,12 Z" id="矩形备份-3" fill="#3790FA" fill-rule="nonzero"></path>
            <path d="M12,2 L12,10 L11,10 L11,2 L12,2 Z M11.5,9.5 L11,9 L12,9 L11.5,9.5 Z" id="矩形备份-5" fill="#3790FA" fill-rule="nonzero"></path>
            <path d="M8,2 L8,4 L7,4 L7,2 L8,2 Z M7.5,3.5 L7,3 L7.5,2.5 L8,3 L7.5,3.5 Z" id="矩形备份-2" fill="#3790FA" fill-rule="nonzero"></path>
            <rect id="矩形备份-4" stroke="#3790FA" fill="#D8D8D8" x="11.5" y="11.5" width="1" height="1"></rect>
            <path d="M4,9 L4,13 L3,13 L3,9 L4,9 Z M3.5,12.5 L3,12 L4,12 L3.5,12.5 Z" id="矩形备份" fill="#3790FA" fill-rule="nonzero"></path>
            <path d="M11.5,9 C12.3284271,9 13,9.67157288 13,10.5 C13,11.3284271 12.3284271,12 11.5,12 C10.6715729,12 10,11.3284271 10,10.5 C10,9.67157288 10.6715729,9 11.5,9 Z M11.5,10 C11.2238576,10 11,10.2238576 11,10.5 C11,10.7761424 11.2238576,11 11.5,11 C11.7761424,11 12,10.7761424 12,10.5 C12,10.2238576 11.7761424,10 11.5,10 Z" id="椭圆形备份-2" fill="#3790FA" fill-rule="nonzero"></path>
        </g>
    </g>
</svg>