<?xml version="1.0" encoding="UTF-8"?>
<svg width="16px" height="16px" viewBox="0 0 16 16" version="1.1" xmlns="http://www.w3.org/2000/svg" xmlns:xlink="http://www.w3.org/1999/xlink">
    <!-- Generator: Sketch 59 (86127) - https://sketch.com -->
    <title>icon/整机型号</title>
    <desc>Created with Sketch.</desc>
    <g id="icon/整机型号" stroke="none" stroke-width="1" fill="none" fill-rule="evenodd">
        <path d="M15,2 C15.5522847,2 16,2.44771525 16,3 L16,10 C16,10.5522847 15.5522847,11 15,11 L2,11 C1.44771525,11 1,10.5522847 1,10 L1,3 C1,2.44771525 1.44771525,2 2,2 L15,2 Z M15,3 L2,3 L2,10 L15,10 L15,3 Z M8,5 L8,7 L4,7 L4,5 L8,5 Z" id="形状结合" fill="#3790FA" fill-rule="nonzero"></path>
        <path d="M15,12 L15,13 L2,13 L2,12 L15,12 Z M14.5,12.5 L14,13 L14,12 L14.5,12.5 Z" id="矩形备份" fill="#3790FA" fill-rule="nonzero"></path>
        <path d="M15,14 L15,15 L2,15 L2,14 L15,14 Z M14,15 L14,14 L14.5,14.5 L14,15 Z" id="矩形备份-2" fill="#3790FA" fill-rule="nonzero"></path>
    </g>
</svg>