<?xml version="1.0" encoding="UTF-8"?>
<svg width="16px" height="16px" viewBox="0 0 16 16" version="1.1" xmlns="http://www.w3.org/2000/svg" xmlns:xlink="http://www.w3.org/1999/xlink">
    <!-- Generator: Sketch 59 (86127) - https://sketch.com -->
    <title>icon/制造商</title>
    <desc>Created with Sketch.</desc>
    <g id="icon/制造商" stroke="none" stroke-width="1" fill="none" fill-rule="evenodd">
        <path d="M10,1 C10.5522847,1 11,1.44771525 11,2 L11,16 L2,16 L2,2 C2,1.44771525 2.44771525,1 3,1 L10,1 Z M10,15 L10,2 L3,2 L3,15 L10,15 Z" id="矩形" fill="#3790FA" fill-rule="nonzero"></path>
        <rect id="矩形" stroke="#3790FA" fill="#D8D8D8" x="1.5" y="15.5" width="14" height="1"></rect>
        <path d="M14,5 C14.5522847,5 15,5.44771525 15,6 L15,16 L10,16 L10,6 C10,5.44771525 10.4477153,5 11,5 L14,5 Z M14,15 L14,6 L11,6 L11,15 L14,15 Z" id="矩形备份" fill="#3790FA" fill-rule="nonzero"></path>
        <path d="M8,4 L8,5 L4,5 L4,4 L8,4 Z M7.5,4.5 L7,5 L7,4 L7.5,4.5 Z" id="矩形" fill="#3790FA" fill-rule="nonzero"></path>
        <path d="M8,7 L8,8 L4,8 L4,7 L8,7 Z M7.5,7.5 L7,8 L7,7 L7.5,7.5 Z" id="矩形备份-2" fill="#3790FA" fill-rule="nonzero"></path>
        <path d="M13,8 L13,9 L10,9 L10,8 L13,8 Z M12,9 L12,8 L12.5,8.5 L12,9 Z" id="矩形备份-4" fill="#3790FA" fill-rule="nonzero"></path>
        <path d="M13,11 L13,12 L10,12 L10,11 L13,11 Z M12,12 L12,11 L12.5,11.5 L12,12 Z" id="矩形备份-5" fill="#3790FA" fill-rule="nonzero"></path>
        <path d="M8,10 L8,11 L4,11 L4,10 L8,10 Z M7.5,10.5 L7,11 L7,10 L7.5,10.5 Z" id="矩形备份-3" fill="#3790FA" fill-rule="nonzero"></path>
    </g>
</svg>