<?xml version="1.0" encoding="UTF-8"?>
<svg width="16px" height="16px" viewBox="0 0 16 16" version="1.1" xmlns="http://www.w3.org/2000/svg" xmlns:xlink="http://www.w3.org/1999/xlink">
    <!-- Generator: Sketch 59 (86127) - https://sketch.com -->
    <title>icon/其他-蓝</title>
    <desc>Created with Sketch.</desc>
    <g id="icon/其他-蓝" stroke="none" stroke-width="1" fill="none" fill-rule="evenodd">
        <g id="system-computer-symbolic" transform="translate(1.000000, 2.000000)" fill="#3790FA" fill-rule="nonzero">
            <path d="M12,0 L2,0 C0.9,0 0,0.9 0,2 L0,9 C0,10.1 0.9,11 2,11 L6.1,11 L6.1,12 L4.5,12 C4.2,12 4,12.2 4,12.5 C4,12.8 4.2,13 4.5,13 L9.5,13 C9.8,13 10,12.8 10,12.5 C10,12.2 9.8,12 9.5,12 L8,12 L8,11 L12,11 C13.1,11 14,10.1 14,9 L14,2 C14,0.9 13.1,0 12,0 Z M13,9 C13,9.6 12.6,10 12,10 L8,10 L6.1,10 L2,10 C1.4,10 1,9.6 1,9 L1,2 C1,1.4 1.4,1 2,1 L12,1 C12.6,1 13,1.4 13,2 L13,9 Z" id="形状"></path>
        </g>
    </g>
</svg>