<?xml version="1.0" encoding="UTF-8"?>
<svg width="16px" height="16px" viewBox="0 0 16 16" version="1.1" xmlns="http://www.w3.org/2000/svg" xmlns:xlink="http://www.w3.org/1999/xlink">
    <!-- Generator: Sketch 59 (86127) - https://sketch.com -->
    <title>icon/网卡</title>
    <desc>Created with Sketch.</desc>
    <g id="icon/网卡" stroke="none" stroke-width="1" fill="none" fill-rule="evenodd">
        <path d="M10,1 C10.5522847,1 11,1.44771525 11,2 L11,4 L12,4 C12.5522847,4 13,4.44771525 13,5 L13,7 L15,7 C15.5522847,7 16,7.44771525 16,8 L16,14 C16,14.5522847 15.5522847,15 15,15 L1,15 C0.44771525,15 0,14.5522847 0,14 L0,8 C0,7.44771525 0.44771525,7 1,7 L3,7 L3,7 L3,5 C3,4.44771525 3.44771525,4 4,4 L5,4 L5,4 L5,2 C5,1.44771525 5.44771525,1 6,1 L10,1 Z M15,8 L1,8 L1,14 L15,14 L15,8 Z M12,5 L4,5 L4,7 L12,7 L12,5 Z M10,2 L6,2 L6,4 L10,4 L10,2 Z" id="形状结合" fill="#3790FA" fill-rule="nonzero"></path>
        <path d="M4,7 L4,14 L3,14 L3,7 L4,7 Z M3.5,13.5 L3,13 L4,13 L3.5,13.5 Z" id="矩形" fill="#3790FA" fill-rule="nonzero"></path>
        <path d="M10,7 L10,14 L9,14 L9,7 L10,7 Z M9,13 L10,13 L9.5,13.5 L9,13 Z" id="矩形备份-3" fill="#3790FA" fill-rule="nonzero"></path>
        <path d="M13,7 L13,14 L12,14 L12,7 L13,7 Z M12,13 L13,13 L12.5,13.5 L12,13 Z" id="矩形备份-5" fill="#3790FA" fill-rule="nonzero"></path>
        <path d="M7,7 L7,14 L6,14 L6,7 L7,7 Z M6,13 L7,13 L6.5,13.5 L6,13 Z" id="矩形备份-4" fill="#3790FA" fill-rule="nonzero"></path>
    </g>
</svg>