<?xml version="1.0" encoding="UTF-8"?>
<svg width="16px" height="16px" viewBox="0 0 16 16" version="1.1" xmlns="http://www.w3.org/2000/svg" xmlns:xlink="http://www.w3.org/1999/xlink">
    <!-- Generator: Sketch 59 (86127) - https://sketch.com -->
    <title>icon/neicun</title>
    <desc>Created with Sketch.</desc>
    <g id="icon/neicun" stroke="none" stroke-width="1" fill="none" fill-rule="evenodd">
        <g id="video-display-symbolic备份" transform="translate(0.000000, 1.000000)" fill="#3790FA" fill-rule="nonzero">
            <g id="编组">
                <path d="M13,13 L13,14 L3,14 L3,13 L13,13 Z M12,14 L12,13 L12.5,13.5 L12,14 Z" id="矩形"></path>
                <path d="M13.5,1 C14.3284271,1 15,1.67157288 15,2.5 L15,8.5 C15,9.32842712 14.3284271,10 13.5,10 L2.5,10 C1.67157288,10 1,9.32842712 1,8.5 L1,2.5 C1,1.67157288 1.67157288,1 2.5,1 L13.5,1 M13.5,-4.4408921e-16 L2.5,-4.4408921e-16 C1.11928813,-4.4408921e-16 0,1.11928813 0,2.5 L0,8.5 C0,9.88071187 1.11928813,11 2.5,11 L13.5,11 C14.1630412,11 14.798926,10.7366079 15.267767,10.267767 C15.7366079,9.79892601 16,9.16304122 16,8.5 L16,2.5 C16,1.11928813 14.8807119,-4.4408921e-16 13.5,-4.4408921e-16 Z" id="形状"></path>
            </g>
            <path d="M7,3 L7,8 L6,8 L6,3 L7,3 Z M6,7 L7,7 L6.5,7.5 L6,7 Z" id="矩形"></path>
            <path d="M4,4 L4,8 L3,8 L3,4 L4,4 Z M3.5,7.5 L3,7 L4,7 L3.5,7.5 Z" id="矩形备份-3"></path>
            <path d="M10,4 L10,8 L9,8 L9,4 L10,4 Z M9.5,7.5 L9,7 L10,7 L9.5,7.5 Z" id="矩形备份"></path>
            <path d="M13,5 L13,8 L12,8 L12,5 L13,5 Z M12,7 L13,7 L12.5,7.5 L12,7 Z" id="矩形备份-2"></path>
        </g>
    </g>
</svg>