<?xml version="1.0" encoding="UTF-8"?>
<svg width="16px" height="16px" viewBox="0 0 16 16" version="1.1" xmlns="http://www.w3.org/2000/svg" xmlns:xlink="http://www.w3.org/1999/xlink">
    <!-- Generator: Sketch 59 (86127) - https://sketch.com -->
    <title>icon/SN</title>
    <desc>Created with Sketch.</desc>
    <g id="icon/SN" stroke="none" stroke-width="1" fill="none" fill-rule="evenodd">
        <path d="M14,2 C15.1045695,2 16,2.8954305 16,4 L16,12 C16,13.1045695 15.1045695,14 14,14 L2,14 C0.8954305,14 0,13.1045695 0,12 L0,4 C0,2.8954305 0.8954305,2 2,2 L14,2 Z M14,3 L2,3 C1.44771525,3 1,3.44771525 1,4 L1,12 C1,12.5522847 1.44771525,13 2,13 L14,13 C14.5522847,13 15,12.5522847 15,12 L15,4 C15,3.44771525 14.5522847,3 14,3 Z" id="矩形" fill="#3790FA" fill-rule="nonzero"></path>
        <path d="M2,9.03693931 L2.84951644,8.97361478 C2.88974875,9.26385369 2.98336484,9.50197796 3.1303675,9.68799472 C3.27737017,9.87401148 3.50560774,10.0244058 3.81508704,10.1391821 C4.12456634,10.2539584 4.47272534,10.3113456 4.85957447,10.3113456 C5.2030965,10.3113456 5.50638166,10.2678105 5.76943907,10.1807388 C6.03249648,10.0936671 6.2282392,9.97427516 6.35667311,9.82255937 C6.48510703,9.67084357 6.54932302,9.50527794 6.54932302,9.32585752 C6.54932302,9.14379856 6.48742809,8.98482918 6.36363636,8.84894459 C6.23984464,8.71306001 6.03559137,8.59894505 5.75087041,8.50659631 L5.59636076,8.46115504 C5.40906987,8.41073002 5.12343483,8.34535364 4.73945204,8.26502508 L4.53926499,8.22361478 C3.9141168,8.0956458 3.47621015,7.9749346 3.22553191,7.86147757 C2.90057865,7.71635811 2.65841472,7.53628076 2.49903288,7.32124011 C2.33965104,7.10619945 2.25996132,6.86543669 2.25996132,6.59894459 C2.25996132,6.30606714 2.35744583,6.03232317 2.55241779,5.77770449 C2.74738976,5.5230858 3.03210644,5.32981596 3.4065764,5.19788918 C3.78104636,5.0659624 4.19728978,5 4.65531915,5 C5.15977041,5 5.60464024,5.06926052 5.98994197,5.20778364 C6.37524371,5.34630676 6.67156569,5.55013058 6.87891683,5.81926121 C7.08626796,6.08839185 7.19767884,6.39313814 7.2131528,6.73350923 L6.34970986,6.78891821 C6.30328797,6.42216175 6.14622958,6.14511967 5.87852998,5.95778364 C5.61083038,5.77044761 5.2154765,5.676781 4.69245648,5.676781 C4.14777291,5.676781 3.75087165,5.7618725 3.50174081,5.93205805 C3.25260997,6.10224359 3.12804642,6.30738666 3.12804642,6.5474934 C3.12804642,6.75593772 3.2162467,6.92743996 3.3926499,7.06200528 C3.54862747,7.18311406 3.93083665,7.30689269 4.53928734,7.43334417 L5.20438559,7.56706267 C5.69422053,7.67069799 6.04504515,7.76355866 6.25686654,7.84564644 C6.65300005,8.00132004 6.9454536,8.19854762 7.13423598,8.43733509 C7.32301835,8.67612257 7.41740812,8.95118578 7.41740812,9.26253298 C7.41740812,9.57124165 7.31373411,9.86213584 7.10638298,10.1352243 C6.89903185,10.4083127 6.60116248,10.6207116 6.21276596,10.7724274 C5.82436943,10.9241432 5.38723647,11 4.90135397,11 C4.28549015,11 3.76944115,10.9234836 3.35319149,10.7704485 C2.93694183,10.6174135 2.61044606,10.3872047 2.37369439,10.0798153 C2.13694272,9.7724259 2.01237917,9.42480405 2,9.03693931 Z M8.63829787,11 L8.63829787,5 L9.56208897,5 L13.1365571,9.71077763 L13.1365571,5 L14,5 L14,11 L13.0762089,11 L9.50174081,6.2851296 L9.50174081,11 L8.63829787,11 Z" id="SN" fill="#3790FA" fill-rule="nonzero"></path>
    </g>
</svg>