<?xml version="1.0" encoding="UTF-8"?>
<svg width="16px" height="16px" viewBox="0 0 16 16" version="1.1" xmlns="http://www.w3.org/2000/svg" xmlns:xlink="http://www.w3.org/1999/xlink">
    <!-- Generator: Sketch 59 (86127) - https://sketch.com -->
    <title>icon/声卡-蓝</title>
    <desc>Created with Sketch.</desc>
    <g id="icon/声卡-蓝" stroke="none" stroke-width="1" fill="none" fill-rule="evenodd">
        <g id="audio-speakers-symbolic">
            <g id="图层_2">
                <g id="编组" fill="#3790FA" fill-rule="nonzero">
                    <path d="M5,2.7 L5,13.4 L3.3,11.4 L3,11 L2.5,11 L2,11 C1.4,11 1,10.6 1,10 L1,6 C1,5.4 1.4,5 2,5 L2.5,5 L3,5 L3.3,4.7 L5,2.7 M5.5,0.8 C5.4,0.8 5.2,0.9 5.1,1 L2.5,4 L2,4 C0.9,4 0,4.9 0,6 L0,10 C0,11.1 0.9,12 2,12 L2.5,12 L5.1,15 C5.2,15.1 5.3,15.2 5.5,15.2 C5.8,15.2 6,15 6,14.7 L6,1.3 C6,1 5.8,0.8 5.5,0.8 L5.5,0.8 Z" id="形状"></path>
                </g>
                <path d="M6,6 L6,7 C6.5,7 7,7.4 7,7.9 L7,8 C7,8.5 6.6,9 6.1,9 L6,9 L6,10 C7.1,10 8,9.1 8,8 C8,6.9 7.1,6 6,6 Z" id="路径" fill="#3790FA" fill-rule="nonzero"></path>
                <path d="M8,3.6 C10,4.1 11.5,5.8 11.5,8 C11.5,10.1 10,11.9 8,12.4" id="路径" stroke="#3790FA" stroke-linecap="round"></path>
                <path d="M11,1.1 C13.6,2.3 15.5,4.9 15.5,8 C15.5,11 13.7,13.7 11.1,14.8" id="路径" stroke="#3790FA" stroke-linecap="round"></path>
            </g>
        </g>
    </g>
</svg>