<?xml version="1.0" encoding="UTF-8"?>
<svg width="16px" height="16px" viewBox="0 0 16 16" version="1.1" xmlns="http://www.w3.org/2000/svg" xmlns:xlink="http://www.w3.org/1999/xlink">
    <!-- Generator: Sketch 59 (86127) - https://sketch.com -->
    <title>icon/系统位数</title>
    <desc>Created with Sketch.</desc>
    <g id="icon/系统位数" stroke="none" stroke-width="1" fill="none" fill-rule="evenodd">
        <g id="video-display-symbolic备份" transform="translate(0.000000, 1.000000)" fill="#3790FA" fill-rule="nonzero">
            <g id="编组">
                <path d="M11,13.35 C10.6330054,13.3893344 10.2681263,13.2590121 10.0090906,12.9960811 C9.75005484,12.7331501 9.62519271,12.3663667 9.67,12 L6.31,12 C6.34643204,12.3752431 6.21017099,12.7466801 5.93972349,13.0093449 C5.66927598,13.2720098 5.2940197,13.3973702 4.92,13.35 L4.92,13.35 C4.44,13.35 4.38,14 4.92,14 L11,14 C11.129713,14.0228405 11.2605863,13.966363 11.3329528,13.8563164 C11.4053192,13.7462698 11.4053192,13.6037302 11.3329528,13.4936836 C11.2605863,13.383637 11.129713,13.3271595 11,13.35 L11,13.35 Z" id="路径"></path>
                <path d="M13.5,1 C14.3284271,1 15,1.67157288 15,2.5 L15,8.5 C15,9.32842712 14.3284271,10 13.5,10 L2.5,10 C1.67157288,10 1,9.32842712 1,8.5 L1,2.5 C1,1.67157288 1.67157288,1 2.5,1 L13.5,1 M13.5,-4.4408921e-16 L2.5,-4.4408921e-16 C1.11928813,-4.4408921e-16 0,1.11928813 0,2.5 L0,8.5 C0,9.88071187 1.11928813,11 2.5,11 L13.5,11 C14.1630412,11 14.798926,10.7366079 15.267767,10.267767 C15.7366079,9.79892601 16,9.16304122 16,8.5 L16,2.5 C16,1.11928813 14.8807119,-4.4408921e-16 13.5,-4.4408921e-16 Z" id="形状"></path>
            </g>
        </g>
        <path d="M6,4 L6,4.001 L10,7.556 L10,4 L11,4 L11,9 L10,9 L6,5.447 L6,9 L5,9 L5,4 L6,4 Z M6,8 L5,8 L5.5,8.5 L6,8 Z M11,8 L10.5,8 L10.333,8.333 L10.5,8.5 L11,8 Z M6.47124475,4.52803883 L6.22601111,4.57541169 L6.3949371,5.44905258 L6.73661064,4.76375095 L6.47124475,4.52803883 Z" id="形状结合" fill="#3790FA" fill-rule="nonzero"></path>
    </g>
</svg>