<?xml version="1.0" encoding="UTF-8"?>
<svg width="291px" height="262px" viewBox="0 0 291 262" version="1.1" xmlns="http://www.w3.org/2000/svg" xmlns:xlink="http://www.w3.org/1999/xlink">
    <!-- Generator: Sketch 59 (86127) - https://sketch.com -->
    <title>整机信息</title>
    <desc>Created with Sketch.</desc>
    <defs>
        <linearGradient x1="100%" y1="50%" x2="0%" y2="50%" id="linearGradient-1">
            <stop stop-color="#B8BFD1" stop-opacity="0.402608378" offset="0%"></stop>
            <stop stop-color="#B8BFD1" offset="100%"></stop>
        </linearGradient>
        <linearGradient x1="95.4598472%" y1="50%" x2="0%" y2="50%" id="linearGradient-2">
            <stop stop-color="#A1AAC7" stop-opacity="0" offset="0%"></stop>
            <stop stop-color="#B9C3E3" stop-opacity="0.255867911" offset="100%"></stop>
        </linearGradient>
        <linearGradient x1="100%" y1="50%" x2="0%" y2="50%" id="linearGradient-3">
            <stop stop-color="#8D93A5" stop-opacity="0.304867618" offset="0%"></stop>
            <stop stop-color="#8D93A5" offset="100%"></stop>
        </linearGradient>
        <linearGradient x1="100%" y1="50%" x2="0%" y2="48.9662253%" id="linearGradient-4">
            <stop stop-color="#D5D6DC" stop-opacity="0.372746394" offset="0%"></stop>
            <stop stop-color="#999CBC" stop-opacity="0.502048733" offset="100%"></stop>
        </linearGradient>
        <linearGradient x1="68.4173728%" y1="62.6418288%" x2="31.5826272%" y2="30.4118728%" id="linearGradient-5">
            <stop stop-color="#A1AAC7" stop-opacity="0" offset="0%"></stop>
            <stop stop-color="#B9C3E3" stop-opacity="0.26" offset="100%"></stop>
        </linearGradient>
        <linearGradient x1="100%" y1="50%" x2="0%" y2="50%" id="linearGradient-6">
            <stop stop-color="#8D93A5" stop-opacity="0.496687882" offset="0%"></stop>
            <stop stop-color="#8D93A5" offset="100%"></stop>
        </linearGradient>
        <linearGradient x1="0%" y1="50%" x2="106.519032%" y2="50%" id="linearGradient-7">
            <stop stop-color="#A1AAC7" stop-opacity="0" offset="0%"></stop>
            <stop stop-color="#B9C3E3" stop-opacity="0.120269989" offset="100%"></stop>
        </linearGradient>
        <linearGradient x1="0%" y1="50%" x2="100%" y2="50%" id="linearGradient-8">
            <stop stop-color="#8D93A5" stop-opacity="0.3" offset="0%"></stop>
            <stop stop-color="#8D93A5" offset="100%"></stop>
        </linearGradient>
        <linearGradient x1="100%" y1="50%" x2="0%" y2="50%" id="linearGradient-9">
            <stop stop-color="#BDC1CF" offset="0%"></stop>
            <stop stop-color="#8D92A8" offset="100%"></stop>
        </linearGradient>
        <linearGradient x1="0%" y1="67.0138889%" x2="100%" y2="32.9861111%" id="linearGradient-10">
            <stop stop-color="#BDC1CF" stop-opacity="0" offset="0%"></stop>
            <stop stop-color="#8D92A8" offset="100%"></stop>
        </linearGradient>
        <linearGradient x1="100%" y1="7.9537681%" x2="100%" y2="100%" id="linearGradient-11">
            <stop stop-color="#BDC1CF" stop-opacity="0" offset="0%"></stop>
            <stop stop-color="#8D92A8" offset="100%"></stop>
        </linearGradient>
        <linearGradient x1="100%" y1="66.7223109%" x2="0%" y2="33.2776891%" id="linearGradient-12">
            <stop stop-color="#BDC1CF" stop-opacity="0" offset="0%"></stop>
            <stop stop-color="#8D92A8" offset="100%"></stop>
        </linearGradient>
    </defs>
    <g id="助手" stroke="none" stroke-width="1" fill="none" fill-rule="evenodd">
        <g id="整机信息" transform="translate(-915.000000, -359.000000)">
            <g id="占位图" transform="translate(915.000000, 359.000000)">
                <path d="M5.50566583,180.611057 L144.310615,100.289438 C144.62009,100.110356 145.001633,100.110134 145.311316,100.288856 L284.491293,180.611637 C284.969635,180.887695 285.133618,181.499257 284.85756,181.977598 C284.768985,182.131077 284.641217,182.258263 284.487336,182.346137 L145.495889,261.716824 C145.188584,261.892309 144.811416,261.892309 144.504111,261.716824 L5.51062998,182.344975 C5.03103378,182.071103 4.86426145,181.460296 5.13813356,180.9807 C5.22581173,180.827161 5.35263113,180.699613 5.50566583,180.611057 Z" id="路径-8备份-5" fill="url(#linearGradient-1)" opacity="0.100000001"></path>
                <path d="M169.376715,100 C194.119324,113.981832 237.96418,137.642438 287.449399,165.606103 C287.930223,165.877813 288.099744,166.487862 287.828034,166.968687 C287.737669,167.128599 287.605006,167.260534 287.444599,167.350017 L145.153078,246.727595 C144.849644,246.896866 144.480095,246.8965 144.176998,246.726627 L2.54799041,167.349913 C2.06621217,167.079898 1.89454424,166.470449 2.16455936,165.988671 C2.4829664,165.589181 2.73104737,165.339615 2.90880226,165.239973 C21.1216279,155.030681 47.8186939,139.816846 83,119.59847" id="路径-8备份" stroke-opacity="0.502048733" stroke="#ABACB7" stroke-width="2"></path>
                <path d="M83.7539375,82.9905948 L143.516435,48.8475778 C143.995977,48.5736101 144.606817,48.7402606 144.880785,49.2198022 C144.965871,49.3687335 145.011219,49.537047 145.012471,49.7085656 L145.495744,115.916905 C145.498374,116.277242 145.306934,116.611127 144.994627,116.790888 L84.748856,151.467814 C84.2701992,151.743325 83.6588257,151.578642 83.3833151,151.099985 C83.295971,150.948238 83.25,150.776218 83.25,150.601129 L83.25,83.8588816 C83.25,83.4999933 83.4423195,83.1686258 83.7539375,82.9905948 Z" id="路径-8备份-14" fill="#A3A7B1" opacity="0.100000001"></path>
                <path d="M88.6217489,79.9444727 L144.507686,48.2789501 C144.81314,48.1058768 145.186982,48.1056618 145.492635,48.2783837 L201.527227,79.9430421 C202.008051,80.2147519 202.177572,80.8248015 201.905862,81.305626 C201.815497,81.4655384 201.682834,81.5974731 201.522427,81.6869566 L145.431114,112.977595 C145.127681,113.146866 144.758132,113.1465 144.455034,112.976627 L88.6258185,81.6868527 C88.1440402,81.4168376 87.9723723,80.8073887 88.2423874,80.3256104 C88.3316686,80.1663092 88.4628665,80.034497 88.6217489,79.9444727 Z" id="路径-8备份-10" stroke="url(#linearGradient-3)" stroke-width="2" fill="url(#linearGradient-2)"></path>
                <path d="M88.6217489,125.944473 L144.507686,94.2789501 C144.81314,94.1058768 145.186982,94.1056618 145.492635,94.2783837 L201.527227,125.943042 C202.008051,126.214752 202.177572,126.824801 201.905862,127.305626 C201.815497,127.465538 201.682834,127.597473 201.522427,127.686957 L145.431114,158.977595 C145.127681,159.146866 144.758132,159.1465 144.455034,158.976627 L88.6258185,127.686853 C88.1440402,127.416838 87.9723723,126.807389 88.2423874,126.32561 C88.3316686,126.166309 88.4628665,126.034497 88.6217489,125.944473 Z" id="路径-8备份-13" stroke="url(#linearGradient-4)" stroke-width="2" opacity="0.5" stroke-dasharray="3"></path>
                <path d="M83.2108888,151.678943 L83.0057882,90.7203436 C83.00393,90.168062 83.4501364,89.7188429 84.002418,89.7169847 C84.1759606,89.7164008 84.3466679,89.7609902 84.4977566,89.8463692 L140.569802,121.532192 C140.883718,121.709583 141.077828,122.042232 141.077828,122.402802 L141.077828,182.986498 C141.077828,183.538783 140.630113,183.986498 140.077828,183.986498 C139.906618,183.986498 139.738275,183.94254 139.588922,183.858835 L83.7219775,152.547915 C83.4073904,152.371603 83.2121021,152.039566 83.2108888,151.678943 Z" id="路径-8备份-11" stroke="url(#linearGradient-6)" stroke-width="2" fill="url(#linearGradient-5)"></path>
                <path d="M85.491923,151.703025 L144.000438,117.962524 C144.47887,117.686623 145.090377,117.850807 145.366278,118.329239 C145.453884,118.481154 145.5,118.653436 145.5,118.828801 L145.5,185.844196 C145.5,186.396481 145.052285,186.844196 144.5,186.844196 C144.326666,186.844196 144.156309,186.799141 144.005638,186.713452 L85.4971231,153.438559 C85.0170463,153.16553 84.8492006,152.555018 85.1222294,152.074941 C85.2101824,151.92029 85.3378017,151.791903 85.491923,151.703025 Z" id="路径-8备份-15" fill="#A3A7B1" opacity="0.100000001"></path>
                <path d="M150.184254,152.262573 C150.169783,152.262573 150.158052,152.250842 150.158052,152.23637 C150.158052,152.226626 150.163459,152.217687 150.172089,152.213163 L206.691391,122.586814 C207.180547,122.330407 207.784946,122.519088 208.041352,123.008245 C208.116434,123.15148 208.155656,123.310789 208.155656,123.47251 L208.155656,182.986498 C208.155656,183.538783 207.707941,183.986498 207.155656,183.986498 C206.984446,183.986498 206.816103,183.94254 206.66675,183.858835 L150.38352,152.314605 C150.322647,152.280489 150.254035,152.262573 150.184254,152.262573 Z" id="路径-8备份-12" stroke="url(#linearGradient-8)" stroke-width="2" fill="url(#linearGradient-7)" transform="translate(179.116742, 153.256286) scale(-1, 1) translate(-179.116742, -153.256286) "></path>
                <polygon id="多边形" stroke="url(#linearGradient-9)" stroke-width="2" opacity="0.12" points="145 18 229.87049 67 229.87049 165 145 214 60.1295104 165 60.1295104 67"></polygon>
                <polygon id="多边形备份" stroke="url(#linearGradient-9)" stroke-width="2" opacity="0.12" points="145.5 2 244.659909 59.25 244.659909 173.75 145.5 231 46.3400913 173.75 46.3400913 59.25"></polygon>
                <line x1="244.659909" y1="173.75" x2="161" y2="222" id="多边形备份-4" stroke="url(#linearGradient-10)" stroke-width="2"></line>
                <line x1="46.3400913" y1="173.75" x2="46" y2="73" id="多边形备份-3" stroke="url(#linearGradient-11)" stroke-width="2"></line>
                <line x1="145.5" y1="2" x2="228" y2="50" id="多边形备份-2" stroke="url(#linearGradient-12)" stroke-width="2"></line>
                <ellipse id="椭圆形" fill="#3790FA" cx="46.0707965" cy="174.068902" rx="2.07079646" ry="2.06890244"></ellipse>
                <ellipse id="椭圆形备份" fill="#3790FA" cx="244.070796" cy="173.068902" rx="2.07079646" ry="2.06890244"></ellipse>
                <ellipse id="椭圆形备份" fill="#3790FA" cx="145.070796" cy="2.06890244" rx="2.07079646" ry="2.06890244"></ellipse>
            </g>
        </g>
    </g>
</svg>