<?xml version="1.0" encoding="UTF-8"?>
<svg width="16px" height="16px" viewBox="0 0 16 16" version="1.1" xmlns="http://www.w3.org/2000/svg" xmlns:xlink="http://www.w3.org/1999/xlink">
    <!-- Generator: Sketch 59 (86127) - https://sketch.com -->
    <title>icon/无线-蓝</title>
    <desc>Created with Sketch.</desc>
    <g id="icon/无线-蓝" stroke="none" stroke-width="1" fill="none" fill-rule="evenodd">
        <g id="network-wireless-connected-symbolic" transform="translate(0.000000, 3.000000)" fill="#3790FA" fill-rule="nonzero">
            <g id="图层_2">
                <path d="M8,11 L9.4,9.6 C9.1,9.2 8.6,9 8,9 C7.4,9 6.9,9.2 6.6,9.6 L8,11 Z" id="路径"></path>
                <path d="M8,6 C6.6,6 5.3,6.6 4.4,7.6 L5.1,8.3 C5.8,7.5 6.9,7 8,7 C9.1,7 10.2,7.5 10.9,8.2 L11.6,7.5 C10.7,6.6 9.4,6 8,6 Z" id="路径"></path>
                <path d="M8,3 C5.7,3 3.7,4 2.2,5.5 L2.9,6.2 C4.2,4.8 6,4 8,4 C10,4 11.8,4.8 13,6.1 L13.7,5.4 C12.3,3.9 10.3,3 8,3 Z" id="路径"></path>
                <path d="M0,3.4 L0.7,4.1 C2.6,2.2 5.1,1 8,1 C10.8,1 13.4,2.2 15.2,4.1 L15.9,3.4 C13.9,1.3 11.1,0 8,0 C4.9,0 2,1.3 0,3.4 Z" id="路径"></path>
            </g>
        </g>
    </g>
</svg>