<svg id="图层_1" data-name="图层 1" xmlns="http://www.w3.org/2000/svg" viewBox="0 0 48 48"><title>2</title><circle cx="24" cy="24" r="22" fill="#694aff"/><path d="M24.2,24a12.8,12.8,0,0,1,9.4-8.7A12.7,12.7,0,0,0,27,11.4a13,13,0,0,0-3.4,8.7A12.3,12.3,0,0,0,24.2,24Z" fill="none" stroke="#fff" stroke-miterlimit="10" stroke-width="2"/><path d="M20.4,22.5a12.8,12.8,0,0,0,3.7,1.4,13,13,0,0,1-2.9-12.5,12.6,12.6,0,0,0-6.7,3.8A13.6,13.6,0,0,0,20.4,22.5Z" fill="none" stroke="#fff" stroke-miterlimit="10" stroke-width="2"/><path d="M20.8,26.4a12.6,12.6,0,0,0,3.1-2.5,13,13,0,0,1-12.3-3.8A12.7,12.7,0,0,0,11,24a11.6,11.6,0,0,0,.6,3.8A12.5,12.5,0,0,0,20.8,26.4Z" fill="none" stroke="#fff" stroke-miterlimit="10" stroke-width="2"/><path d="M23.8,24a12.9,12.9,0,0,1-9.4,8.8A12.7,12.7,0,0,0,21,36.7a13,13,0,0,0,3.4-8.8A13.2,13.2,0,0,0,23.8,24Z" fill="none" stroke="#fff" stroke-miterlimit="10" stroke-width="2"/><path d="M27.6,25.6a12.8,12.8,0,0,0-3.7-1.4,13,13,0,0,1,2.9,12.5,12.6,12.6,0,0,0,6.7-3.8A13.6,13.6,0,0,0,27.6,25.6Z" fill="none" stroke="#fff" stroke-miterlimit="10" stroke-width="2"/><path d="M27.2,21.7a12.6,12.6,0,0,0-3.1,2.5A13,13,0,0,1,36.4,28a13.4,13.4,0,0,0,.6-4,11.5,11.5,0,0,0-.6-3.7A12.5,12.5,0,0,0,27.2,21.7Z" fill="none" stroke="#fff" stroke-miterlimit="10" stroke-width="2"/><text transform="translate(15.1 -8.2)" font-size="10" fill="#fff" font-family="NotoSansHans-Light-GBpc-EUC-H, Noto Sans S Chinese">显卡</text></svg>