<svg id="图层_1" data-name="图层 1" xmlns="http://www.w3.org/2000/svg" viewBox="0 0 48 48"><title>3</title><circle cx="24" cy="24" r="22" fill="#27d686"/><path d="M24,13.4A21.2,21.2,0,0,0,9,19.6l1.8,1.8a18.7,18.7,0,0,1,26.4-.1L39,19.6A21,21,0,0,0,24,13.4Z" fill="#fff"/><path d="M13.1,23.8l1.8,1.7a12.9,12.9,0,0,1,18.2,0l1.8-1.8A15.5,15.5,0,0,0,13.1,23.8Z" fill="#fff"/><path d="M17.3,27.9,19,29.6a7.2,7.2,0,0,1,10,0l1.7-1.8A9.5,9.5,0,0,0,17.3,27.9Z" fill="#fff"/><path d="M21.4,32,24,34.6l2.6-2.7A3.7,3.7,0,0,0,21.4,32Z" fill="#fff"/><text transform="translate(6.1 -8.2)" font-size="10" fill="#fff" font-family="NotoSansHans-Light-GBpc-EUC-H, Noto Sans S Chinese">无线网卡</text></svg>