<svg id="图层_1" data-name="图层 1" xmlns="http://www.w3.org/2000/svg" viewBox="0 0 48 48"><title>4</title><circle cx="24" cy="24" r="22" fill="#27d686"/><path d="M15,19.7v0Z" fill="none"/><path d="M17,25.7V28a.9.9,0,0,0,1,1H32a.9.9,0,0,0,1-1V20a.9.9,0,0,0-1-1H21v6.7Z" fill="none"/><path d="M32,17H18a3.2,3.2,0,0,0-1.9.7h-.2a3.1,3.1,0,0,0-.9,1.8h2.1A.9.9,0,0,1,18,19H32a.9.9,0,0,1,1,1v8a.9.9,0,0,1-1,1H18a.9.9,0,0,1-1-1V25.7H15V28a2.9,2.9,0,0,0,3,3H32a2.9,2.9,0,0,0,3-3V20A2.9,2.9,0,0,0,32,17Z" fill="#fff"/><rect x="15" y="24.8" width="2" height="0.91" fill="#404040"/><rect x="22" y="31" width="6" height="2" rx="1" transform="translate(57 7) rotate(90)" fill="#fff"/><rect x="21" y="33" width="8" height="2" rx="1" fill="#fff"/><rect x="16" y="24.1" width="2" height="10.91" fill="#fff"/><path d="M13,17.9v7.9h8V17.9Zm6,5.9H15V19.9h4Z" fill="#fff"/><path d="M14,13v6h6V13Zm4,4H16V15h2Z" fill="#fff"/><text transform="translate(6.1 -8.2)" font-size="10" fill="#fff" font-family="NotoSansHans-Light-GBpc-EUC-H, Noto Sans S Chinese">有线网卡</text></svg>