<svg id="图层_1" data-name="图层 1" xmlns="http://www.w3.org/2000/svg" viewBox="0 0 48 48"><title>5</title><circle cx="24" cy="24" r="22" fill="#694aff"/><path d="M20.6,16.4l-4.7,4.7H14.4A1.5,1.5,0,0,0,13,22.7v2.6a1.5,1.5,0,0,0,1.4,1.6h1.5l4.7,4.7A1.4,1.4,0,0,0,23,30.4V17.6A1.4,1.4,0,0,0,20.6,16.4Z" fill="none" stroke="#fff" stroke-miterlimit="10" stroke-width="2"/><path d="M33,17a14.3,14.3,0,0,1,2,7.4A14,14,0,0,1,33.4,31" fill="none" stroke="#fff" stroke-linecap="round" stroke-miterlimit="10" stroke-width="2"/><path d="M29,19a7.2,7.2,0,0,1,0,10" fill="none" stroke="#fff" stroke-linecap="round" stroke-miterlimit="10" stroke-width="2"/><path d="M26,21a5,5,0,0,1,0,6" fill="none" stroke="#fff" stroke-linecap="round" stroke-miterlimit="10" stroke-width="2"/><text transform="translate(16.1 -8.2)" font-size="10" fill="#fff" font-family="NotoSansHans-Light-GBpc-EUC-H, Noto Sans S Chinese">声卡</text></svg>