<svg id="图层_1" data-name="图层 1" xmlns="http://www.w3.org/2000/svg" viewBox="0 0 48 48"><title>6</title><circle cx="24" cy="24" r="22" fill="#ffab50"/><path d="M26.3,11.1l1.9.6v3.1l1,.6a9.2,9.2,0,0,1,3.2,3.3l.6.9h3.3l.5,1.9-1.8,1L34,23v1.2a6.9,6.9,0,0,1-.4,2.5,14.6,14.6,0,0,1-.7,1.9l-.6,1,.6,1L34,32.4l-1.5,1.4-1.7-1-.9-.6-1.1.5A9.8,9.8,0,0,1,24.4,34H23.3l-.5,1-1.1,1.9-1.9-.6V33.2l-1-.6a9.2,9.2,0,0,1-3.2-3.3l-.6-.9H11.7l-.5-1.9,1.8-1,1-.5V23.8a6.9,6.9,0,0,1,.4-2.5,14.6,14.6,0,0,1,.7-1.9l.6-1-.6-1L14,15.6l1.5-1.4,1.7,1,.9.6,1.1-.5A9.8,9.8,0,0,1,23.6,14h1.1l.5-1,1.1-1.9m-1-2.3L23.5,12a12,12,0,0,0-5.3,1.5l-3-1.9-3.7,3.6,1.9,3.2a24.4,24.4,0,0,0-1,2.4,15.4,15.4,0,0,0-.4,3L8.9,25.5l1.3,4.9h3.7a12.1,12.1,0,0,0,3.9,3.9v3.5l5,1.4L24.5,36a12,12,0,0,0,5.3-1.5l3,1.9,3.7-3.6-1.9-3.2a24.4,24.4,0,0,0,1-2.4,15.4,15.4,0,0,0,.4-3l3.1-1.7-1.3-4.9H34.1a12.1,12.1,0,0,0-3.9-3.9V10.2l-5-1.4Z" fill="#fff"/><text transform="translate(6.1 -9.2)" font-size="10" fill="#fff" font-family="NotoSansHans-Light-GBpc-EUC-H, Noto Sans S Chinese">其他驱动</text></svg>