<svg id="图层_1" data-name="图层 1" xmlns="http://www.w3.org/2000/svg" viewBox="0 0 48 48"><title>7</title><circle cx="24" cy="24" r="24" fill="#27d686"/><path d="M27,23.7V14a3,3,0,0,0-6,0v9.7A6.9,6.9,0,0,0,17,30a7,7,0,0,0,14,0A6.9,6.9,0,0,0,27,23.7Z" fill="#fff"/><circle cx="24" cy="31" r="3" fill="#27d686"/><rect x="23" y="14" width="2" height="18" rx="1" fill="#27d686"/><rect x="11" y="11" width="4" height="1" fill="#fff"/><rect x="11" y="15" width="4" height="1" fill="#fff"/><rect x="11" y="19" width="4" height="1" fill="#fff"/><rect x="11" y="23" width="4" height="1" fill="#fff"/><rect x="11" y="27" width="4" height="1" fill="#fff"/><rect x="11" y="31" width="4" height="1" fill="#fff"/><rect x="11" y="35" width="4" height="1" fill="#fff"/><rect x="33" y="11" width="4" height="1" fill="#fff"/><rect x="33" y="15" width="4" height="1" fill="#fff"/><rect x="33" y="19" width="4" height="1" fill="#fff"/><rect x="33" y="23" width="4" height="1" fill="#fff"/><rect x="33" y="27" width="4" height="1" fill="#fff"/><rect x="33" y="31" width="4" height="1" fill="#fff"/><rect x="33" y="35" width="4" height="1" fill="#fff"/></svg>