<svg id="图层_1" data-name="图层 1" xmlns="http://www.w3.org/2000/svg" viewBox="0 0 48 48"><title>8_1</title><circle cx="24" cy="24" r="24" fill="#4064df"/><path d="M17.1,17.8a7.5,7.5,0,0,1-1.4-4.2,2.5,2.5,0,0,0-4.1-1.8h-.1a8.2,8.2,0,0,0-1.6,9.9,8.1,8.1,0,0,0,11.9,2.9h0a2,2,0,0,0-.6-3.6A8.4,8.4,0,0,1,17.1,17.8Z" fill="#fff"/><path d="M22.5,31.7a7.7,7.7,0,0,1-3,3.4,2.5,2.5,0,0,0,.5,4.5h.1a8.2,8.2,0,0,0,6-15.3H26a2,2,0,0,0-2.8,2.3A8.2,8.2,0,0,1,22.5,31.7Z" fill="#fff"/><path d="M31.8,20.1a8.7,8.7,0,0,1,4.5.9,2.5,2.5,0,0,0,3.6-2.7h0a8.3,8.3,0,0,0-7.8-6.3,8.2,8.2,0,0,0-8.5,8.9h0a2.1,2.1,0,0,0,3.5,1.3A8.7,8.7,0,0,1,31.8,20.1Z" fill="#fff"/><path d="M24,27.5A3.8,3.8,0,0,1,21.1,26a3.4,3.4,0,0,1-.5-2.6A4.3,4.3,0,0,1,22,21.1a3.6,3.6,0,0,1,2-.6A3.8,3.8,0,0,1,26.9,22a3.4,3.4,0,0,1,.5,2.6A4.3,4.3,0,0,1,26,26.9,3.6,3.6,0,0,1,24,27.5Z" fill="#fff"/><path d="M24,21.5a2.3,2.3,0,0,1,2,1.1,2.5,2.5,0,0,1-2,3.9,2.3,2.3,0,0,1-2-1.1,2.5,2.5,0,0,1,2-3.9m0-2a4.4,4.4,0,0,0-2.5.8,4.4,4.4,0,0,0-1.9,2.9,4.2,4.2,0,0,0,.7,3.3,4.6,4.6,0,0,0,3.7,2,4.4,4.4,0,0,0,2.5-.8,4.4,4.4,0,0,0,1.9-2.9,4.2,4.2,0,0,0-.7-3.3,4.6,4.6,0,0,0-3.7-2Z" fill="#4064df"/></svg>