<svg id="图层_1" data-name="图层 1" xmlns="http://www.w3.org/2000/svg" viewBox="0 0 48 48"><title>9</title><circle cx="24" cy="24" r="22" fill="#3369ff"/><rect x="21" y="21" width="6" height="6" fill="none" stroke="#fff" stroke-miterlimit="10" stroke-width="2"/><rect x="16" y="16" width="16" height="16" fill="none" stroke="#fff" stroke-miterlimit="10" stroke-width="2"/><rect x="27.4" y="31.5" width="1" height="6" transform="translate(55.7 69) rotate(180)" fill="#fff"/><rect x="23.5" y="31.5" width="1" height="6" transform="translate(48 69) rotate(180)" fill="#fff"/><rect x="19.6" y="31.5" width="1" height="6" transform="translate(40.3 69) rotate(180)" fill="#fff"/><rect x="27.4" y="10.5" width="1" height="6" transform="translate(55.7 27) rotate(180)" fill="#fff"/><rect x="23.5" y="10.5" width="1" height="6" transform="translate(48 27) rotate(180)" fill="#fff"/><rect x="19.6" y="10.5" width="1" height="6" transform="translate(40.3 27) rotate(180)" fill="#fff"/><rect x="34" y="17.1" width="1" height="6" transform="translate(54.6 -14.4) rotate(90)" fill="#fff"/><rect x="34" y="21" width="1" height="6" transform="translate(58.5 -10.5) rotate(90)" fill="#fff"/><rect x="34" y="24.9" width="1" height="6" transform="translate(62.4 -6.6) rotate(90)" fill="#fff"/><rect x="13" y="17.1" width="1" height="6" transform="translate(33.6 6.6) rotate(90)" fill="#fff"/><rect x="13" y="21" width="1" height="6" transform="translate(37.5 10.5) rotate(90)" fill="#fff"/><rect x="13" y="24.9" width="1" height="6" transform="translate(41.4 14.4) rotate(90)" fill="#fff"/><text transform="translate(13.1 -8.2)" font-size="10" fill="#fff" font-family="NotoSansHans-Light-GBpc-EUC-H, Noto Sans S Chinese">主板</text></svg>