<svg id="图层_1" data-name="图层 1" xmlns="http://www.w3.org/2000/svg" viewBox="0 0 32 32"><title>cookies</title><path d="M16,1A15,15,0,1,0,31,16,15,15,0,0,0,16,1ZM6,11.5A1.5,1.5,0,0,1,7.5,10a1.5,1.5,0,0,1,0,3A1.5,1.5,0,0,1,6,11.5ZM9.5,24A2.5,2.5,0,1,1,12,21.5,2.5,2.5,0,0,1,9.5,24Zm7.1-7A1.5,1.5,0,1,1,18,15.4,1.5,1.5,0,0,1,16.6,17ZM16,8a2,2,0,1,1,2,2A2,2,0,0,1,16,8Zm3.6,20A1.5,1.5,0,1,1,21,26.4,1.5,1.5,0,0,1,19.6,28Zm1.5-7a.8.8,0,0,1-1-.8.9.9,0,0,1,.8-1.1A.9.9,0,0,1,22,20,1,1,0,0,1,21.1,21Zm5-6a.8.8,0,0,1-1-.8.9.9,0,0,1,.8-1.1A.9.9,0,0,1,27,14,1,1,0,0,1,26.1,15Z" fill="#2267f2"/></svg>