<svg id="图层_1" data-name="图层 1" xmlns="http://www.w3.org/2000/svg" xmlns:xlink="http://www.w3.org/1999/xlink" viewBox="0 0 48 48"><defs><linearGradient id="未命名的渐变_80" x1="8.5" y1="46" x2="8.5" y2="26" gradientUnits="userSpaceOnUse"><stop offset="0" stop-color="#46d3a4"/><stop offset="1" stop-color="#009b6b"/></linearGradient><linearGradient id="未命名的渐变_80-2" x1="24.55" y1="13" x2="12.05" y2="13" xlink:href="#未命名的渐变_80"/><linearGradient id="未命名的渐变_80-3" x1="36.78" x2="36.78" y2="37" xlink:href="#未命名的渐变_80"/><linearGradient id="未命名的渐变_80-4" x1="15.16" x2="15.16" y2="38" xlink:href="#未命名的渐变_80"/><linearGradient id="未命名的渐变_80-5" x1="25.23" x2="25.23" y2="34" xlink:href="#未命名的渐变_80"/><linearGradient id="未命名的渐变_61" x1="15.89" y1="9.52" x2="33.21" y2="26.84" gradientUnits="userSpaceOnUse"><stop offset="0" stop-color="#92ffdd"/><stop offset="1" stop-color="#16d8a0"/></linearGradient><linearGradient id="未命名的渐变_6" x1="5" y1="36" x2="44" y2="36" gradientUnits="userSpaceOnUse"><stop offset="0.31" stop-color="#99ffdf"/><stop offset="1" stop-color="#fcee21"/></linearGradient><linearGradient id="未命名的渐变_80-6" x1="44" y1="42" x2="44" y2="38" xlink:href="#未命名的渐变_80"/><linearGradient id="未命名的渐变_80-7" x1="5" y1="35" x2="5" y2="31" xlink:href="#未命名的渐变_80"/><linearGradient id="未命名的渐变_80-8" x1="5" y1="41" x2="5" y2="39" xlink:href="#未命名的渐变_80"/><linearGradient id="未命名的渐变_80-9" x1="41" y1="35" x2="41" y2="33" xlink:href="#未命名的渐变_80"/><linearGradient id="未命名的渐变_80-10" x1="35.5" y1="45" x2="35.5" y2="44" xlink:href="#未命名的渐变_80"/></defs><title>top</title><path d="M0,20.4v0Z" fill="#8a9691"/><path d="M45.5,20.4v0Z" fill="#8a9691"/><path d="M12,26A104.3,104.3,0,0,1,4,46H5a104.3,104.3,0,0,0,8-20Z" fill="url(#未命名的渐变_80)"/><path d="M21,15.5V6a4,4,0,0,1,3.5-3.9H24a4,4,0,0,0-4,4v9.5A11.5,11.5,0,0,0,12,24h1A11.5,11.5,0,0,1,21,15.5Z" fill="url(#未命名的渐变_80-2)"/><polygon points="34.7 38.7 37.8 46 38.8 46 35 37 34.7 38.7" fill="url(#未命名的渐变_80-3)"/><polygon points="15.9 45 15 38 14.3 39.9 15.1 46 15.2 46 16.1 46 15.9 45" fill="url(#未命名的渐变_80-4)"/><polygon points="26.6 45 24 34 23.6 36.5 25.6 45 25.9 46 26.1 46 26.9 46 26.6 45" fill="url(#未命名的渐变_80-5)"/><path d="M21,6v9.5A11.5,11.5,0,0,0,13,24H36a11.2,11.2,0,0,0-8-8.5V6a3.9,3.9,0,0,0-3.5-3.9A4,4,0,0,0,21,6Z" fill="url(#未命名的渐变_61)"/><path d="M36,26H13A104.3,104.3,0,0,1,5,46h6.8l2.5-6.1L15,38l.9,7,.2,1h6l1.5-9.5L24,34l2.6,11,.3,1h6.6l1.2-7.3L35,37l3.8,9H44C40,40,38,33,36,26Z" fill="url(#未命名的渐变_6)"/><circle cx="44" cy="40" r="2" fill="url(#未命名的渐变_80-6)"/><circle cx="5" cy="33" r="2" fill="url(#未命名的渐变_80-7)"/><circle cx="5" cy="40" r="1" fill="url(#未命名的渐变_80-8)"/><circle cx="41" cy="34" r="1" fill="url(#未命名的渐变_80-9)"/><circle cx="35.5" cy="44.5" r="0.5" fill="url(#未命名的渐变_80-10)"/></svg>