<svg id="图层_1" data-name="图层 1" xmlns="http://www.w3.org/2000/svg" xmlns:xlink="http://www.w3.org/1999/xlink" viewBox="0 0 48 48"><defs><linearGradient id="未命名的渐变_80" x1="8.87" y1="35.42" x2="15.24" y2="35.42" gradientTransform="matrix(0.87, 0.5, -0.5, 0.87, 18.76, -14.2)" gradientUnits="userSpaceOnUse"><stop offset="0" stop-color="#46d3a4"/><stop offset="1" stop-color="#009b6b"/></linearGradient><linearGradient id="未命名的渐变_80-2" x1="43.23" y1="35.41" x2="36.86" y2="35.41" xlink:href="#未命名的渐变_80"/><linearGradient id="未命名的渐变_64" x1="8.94" y1="37.39" x2="19.3" y2="37.39" gradientTransform="matrix(0.87, 0.5, -0.5, 0.87, 18.76, -14.2)" gradientUnits="userSpaceOnUse"><stop offset="0.35" stop-color="#46d3a4"/><stop offset="1" stop-color="#009b6b"/></linearGradient><linearGradient id="未命名的渐变_63" x1="43.16" y1="37.39" x2="33.15" y2="37.39" gradientTransform="matrix(0.87, 0.5, -0.5, 0.87, 18.76, -14.2)" gradientUnits="userSpaceOnUse"><stop offset="0.28" stop-color="#46d3a4"/><stop offset="1" stop-color="#009b6b"/></linearGradient><linearGradient id="未命名的渐变_6" x1="26.05" y1="54.17" x2="26.05" y2="45" gradientTransform="matrix(0.87, 0.5, -0.5, 0.87, 18.76, -14.2)" gradientUnits="userSpaceOnUse"><stop offset="0.31" stop-color="#99ffdf"/><stop offset="1" stop-color="#fcee21"/></linearGradient><linearGradient id="未命名的渐变_6-2" x1="21.47" y1="51.87" x2="21.47" y2="47.29" xlink:href="#未命名的渐变_6"/><linearGradient id="未命名的渐变_6-3" x1="30.63" y1="51.87" x2="30.63" y2="47.29" xlink:href="#未命名的渐变_6"/><linearGradient id="未命名的渐变_3" x1="29.07" y1="-1.46" x2="2.5" y2="44.55" gradientTransform="matrix(0.87, 0.5, -0.5, 0.87, 18.76, -14.2)" gradientUnits="userSpaceOnUse"><stop offset="0.1" stop-color="#f0f7f5"/><stop offset="0.82" stop-color="#85b1ff"/></linearGradient><linearGradient id="未命名的渐变_51" x1="11.46" y1="3.76" x2="39.93" y2="3.76" gradientTransform="matrix(0.87, 0.5, -0.5, 0.87, 18.76, -14.2)" gradientUnits="userSpaceOnUse"><stop offset="0.31" stop-color="#99ffdf"/><stop offset="1" stop-color="#0ec68d"/></linearGradient><linearGradient id="未命名的渐变_79" x1="3.79" y1="4.26" x2="54.11" y2="33.31" gradientUnits="userSpaceOnUse"><stop offset="0.12" stop-color="#99ffdf"/><stop offset="1" stop-color="#0ec68d"/></linearGradient><linearGradient id="未命名的渐变_6-4" x1="34.39" y1="17.7" x2="18.12" y2="17.7" xlink:href="#未命名的渐变_6"/><linearGradient id="未命名的渐变_37" x1="17.71" y1="20.28" x2="33.98" y2="20.28" gradientTransform="translate(51.5 -9.7) rotate(90)" gradientUnits="userSpaceOnUse"><stop offset="0.17" stop-color="#e1edf6"/><stop offset="0.24" stop-color="#d3e4f7"/><stop offset="0.53" stop-color="#9bbffd"/><stop offset="0.68" stop-color="#85b1ff"/></linearGradient><linearGradient id="未命名的渐变_6-5" x1="26.05" y1="27.67" x2="26.05" y2="13.25" gradientTransform="translate(51.5 -9.7) rotate(90)" xlink:href="#未命名的渐变_6"/></defs><title>top2</title><path d="M15.9,21.2l.8-2c-4.4.2-8.2,2.1-10.1,5.5a3.1,3.1,0,0,0-.5,1C8.2,22.8,11.8,21.3,15.9,21.2Z" fill="url(#未命名的渐变_80)"/><path d="M36,30.3,34.7,32c1.9,3.6,2.4,7.5,1,10.8l.6-1C38.3,38.4,38,34.2,36,30.3Z" fill="url(#未命名的渐变_80-2)"/><path d="M6.1,25.7a6.4,6.4,0,0,0-.6,1.8,69.1,69.1,0,0,1,9.3,3.7,21.1,21.1,0,0,1,1.1-10C11.8,21.3,8.2,22.8,6.1,25.7Z" fill="url(#未命名的渐变_64)"/><path d="M34.7,32a22,22,0,0,1-7.9,6.2,59.2,59.2,0,0,1,7.6,6,8.6,8.6,0,0,0,1.3-1.4C37.1,39.5,36.6,35.6,34.7,32Z" fill="url(#未命名的渐变_63)"/><path d="M18.7,37.7c-4.2-2.4-4.6,8-4.6,8S23.4,40.5,18.7,37.7Z" fill="url(#未命名的渐变_6)"/><path d="M13.6,37.4c-2-1.2-2.2,4-2.2,4S16,38.8,13.6,37.4Z" fill="url(#未命名的渐变_6-2)"/><path d="M21.6,42c-2.1-1.2-2.3,4-2.3,4S24,43.4,21.6,42Z" fill="url(#未命名的渐变_6-3)"/><path d="M39.4,2.1h0Z" fill="url(#未命名的渐变_3)"/><polygon points="39.4 2.1 39.4 2.1 39.5 2.1 39.4 2.1" fill="url(#未命名的渐变_51)"/><path d="M39.7,2.3l-.2-.2h-.4C37,2,26.4,2.8,19.3,14.1a30.7,30.7,0,0,0-2.6,5.1l-.8,2a21.1,21.1,0,0,0-1.1,10,10.5,10.5,0,0,0,.5,1.9h0a1.3,1.3,0,0,0,.8.7h.3A28.4,28.4,0,0,1,20,35.7a21.2,21.2,0,0,1,3.5,2.5l.4.4c.1.2.3.2.5.2h.4l2-.5A22,22,0,0,0,34.7,32L36,30.3a42.5,42.5,0,0,0,3.1-4.7A23.3,23.3,0,0,0,39.7,2.3ZM39.2,2h0c.1,0,.2,0,.2.1S39.3,2,39.2,2Z" fill="url(#未命名的渐变_79)"/><path d="M33.2,12.9a4.5,4.5,0,0,1,1.9,5.7l.3-.4a4.6,4.6,0,0,0-1.6-6.3,4.7,4.7,0,0,0-6.3,1.7c-.1.2-.2.3-.2.5A4.5,4.5,0,0,1,33.2,12.9Z" fill="url(#未命名的渐变_6-4)"/><ellipse cx="31.2" cy="16.4" rx="4" ry="4.5" transform="translate(1.4 35.2) rotate(-60)" fill="url(#未命名的渐变_37)"/><ellipse cx="31.2" cy="16.4" rx="4" ry="4.5" transform="translate(1.4 35.2) rotate(-60)" fill="url(#未命名的渐变_6-5)"/></svg>