<svg id="图层_1" data-name="图层 1" xmlns="http://www.w3.org/2000/svg" xmlns:xlink="http://www.w3.org/1999/xlink" viewBox="0 0 48 48"><defs><linearGradient id="未命名的渐变_97" x1="24" y1="126.17" x2="24" y2="-30.18" gradientUnits="userSpaceOnUse"><stop offset="0" stop-color="#16d8a0"/><stop offset="0.86" stop-color="#92ffdd"/></linearGradient><linearGradient id="未命名的渐变_51" x1="-15.4" y1="-15.4" x2="44.9" y2="44.9" gradientUnits="userSpaceOnUse"><stop offset="0.31" stop-color="#99ffdf"/><stop offset="1" stop-color="#0ec68d"/></linearGradient><linearGradient id="未命名的渐变_25" x1="12" y1="24" x2="36" y2="24" gradientUnits="userSpaceOnUse"><stop offset="0.29" stop-color="#16d8a0"/><stop offset="0.71" stop-color="#92ffdd"/></linearGradient><linearGradient id="未命名的渐变_23" x1="24" y1="55.15" x2="24" y2="-1.7" gradientUnits="userSpaceOnUse"><stop offset="0.31" stop-color="#99ffdf"/><stop offset="0.51" stop-color="#99ffdf"/><stop offset="0.8" stop-color="#fcee21"/></linearGradient><linearGradient id="未命名的渐变_80" x1="153.81" y1="141.31" x2="154.69" y2="141.31" gradientTransform="translate(-114.1 -116.6)" gradientUnits="userSpaceOnUse"><stop offset="0" stop-color="#46d3a4"/><stop offset="1" stop-color="#009b6b"/></linearGradient><linearGradient id="未命名的渐变_80-2" x1="89.56" y1="118.1" x2="90.44" y2="118.1" gradientTransform="translate(-51.8 -101.5)" xlink:href="#未命名的渐变_80"/><linearGradient id="未命名的渐变_80-3" x1="45.52" y1="65.87" x2="46.4" y2="65.87" gradientTransform="translate(-13.5 -55.4)" xlink:href="#未命名的渐变_80"/><linearGradient id="未命名的渐变_80-4" x1="33.5" y1="-1.37" x2="34.37" y2="-1.37" gradientTransform="translate(-9.5 9.5)" xlink:href="#未命名的渐变_80"/><linearGradient id="未命名的渐变_80-5" x1="56.71" y1="-65.63" x2="57.59" y2="-65.63" gradientTransform="translate(-40.9 75.7)" xlink:href="#未命名的渐变_80"/><linearGradient id="未命名的渐变_80-6" x1="108.94" y1="-109.66" x2="109.81" y2="-109.66" gradientTransform="translate(-99.2 125.5)" xlink:href="#未命名的渐变_80"/><linearGradient id="未命名的渐变_80-7" x1="176.19" y1="-121.69" x2="177.06" y2="-121.69" gradientTransform="translate(-168.8 145.6)" xlink:href="#未命名的渐变_80"/><linearGradient id="未命名的渐变_25-2" x1="24" y1="6" x2="24" y2="42" xlink:href="#未命名的渐变_25"/></defs><title>top3</title><circle cx="24" cy="24" r="22" fill="url(#未命名的渐变_97)"/><circle cx="24" cy="24" r="12" fill="url(#未命名的渐变_51)"/><path d="M24,14A10,10,0,1,1,14,24,10,10,0,0,1,24,14m0-2A12,12,0,1,0,36,24,12,12,0,0,0,24,12Z" fill="url(#未命名的渐变_25)"/><path d="M26.9,23.1a2.9,2.9,0,0,1-5.8,0C21.1,21.5,24,10,24,10S26.9,21.5,26.9,23.1Z" fill="url(#未命名的渐变_23)"/><rect x="39.8" y="23.4" width="0.9" height="2.63" rx="0.4" transform="translate(64.9 -15.4) rotate(90)" fill="url(#未命名的渐变_80)"/><rect x="37.8" y="15.3" width="0.9" height="2.62" rx="0.4" transform="translate(33.5 -24.8) rotate(60)" fill="url(#未命名的渐变_80-2)"/><rect x="32" y="9.2" width="0.9" height="2.63" rx="0.4" transform="matrix(0.87, 0.5, -0.5, 0.87, 9.61, -14.83)" fill="url(#未命名的渐变_80-3)"/><rect x="24" y="6.8" width="0.9" height="2.62" rx="0.4" fill="url(#未命名的渐变_80-4)"/><rect x="15.8" y="8.8" width="0.9" height="2.62" rx="0.4" transform="translate(-2.9 9.5) rotate(-30)" fill="url(#未命名的渐变_80-5)"/><rect x="9.8" y="14.5" width="0.9" height="2.63" rx="0.4" transform="matrix(0.5, -0.87, 0.87, 0.5, -8.62, 16.75)" fill="url(#未命名的渐变_80-6)"/><rect x="7.4" y="22.6" width="0.9" height="2.63" rx="0.4" transform="translate(-16.1 31.7) rotate(-90)" fill="url(#未命名的渐变_80-7)"/><path d="M24,7A17,17,0,1,1,7,24,17,17,0,0,1,24,7m0-1A18,18,0,1,0,42,24,18.1,18.1,0,0,0,24,6Z" fill="url(#未命名的渐变_25-2)"/></svg>