<svg id="图层_1" data-name="图层 1" xmlns="http://www.w3.org/2000/svg" xmlns:xlink="http://www.w3.org/1999/xlink" viewBox="0 0 48 48"><defs><linearGradient id="未命名的渐变_80" x1="233.74" y1="180.29" x2="232.25" y2="182.87" gradientTransform="translate(280.6 -82) rotate(120)" gradientUnits="userSpaceOnUse"><stop offset="0" stop-color="#46d3a4"/><stop offset="1" stop-color="#009b6b"/></linearGradient><linearGradient id="未命名的渐变_51" x1="51.59" y1="35.45" x2="-5.18" y2="35.45" gradientUnits="userSpaceOnUse"><stop offset="0.31" stop-color="#99ffdf"/><stop offset="1" stop-color="#0ec68d"/></linearGradient><linearGradient id="未命名的渐变_24" x1="-9.57" y1="30.78" x2="54.47" y2="30.78" gradientUnits="userSpaceOnUse"><stop offset="0.59" stop-color="#99ffdf"/><stop offset="1" stop-color="#0ec68d"/></linearGradient><linearGradient id="未命名的渐变_9" x1="67.55" y1="27.5" x2="-9.87" y2="27.5" gradientUnits="userSpaceOnUse"><stop offset="0" stop-color="#99ffdf"/><stop offset="1" stop-color="#0ec68d"/></linearGradient><linearGradient id="未命名的渐变_21" x1="-19.55" y1="11.65" x2="57.87" y2="11.65" gradientUnits="userSpaceOnUse"><stop offset="0.01" stop-color="#99ffdf"/><stop offset="1" stop-color="#0ec68d"/></linearGradient><linearGradient id="未命名的渐变_51-2" x1="24" y1="-10.11" x2="24" y2="42.23" xlink:href="#未命名的渐变_51"/><linearGradient id="未命名的渐变_70" x1="24" y1="31.84" x2="24" y2="6.82" gradientUnits="userSpaceOnUse"><stop offset="0.08" stop-color="#d8f466"/><stop offset="0.97" stop-color="#92ffdd"/></linearGradient><linearGradient id="未命名的渐变_51-3" x1="57.57" y1="26.97" x2="-6.47" y2="26.97" xlink:href="#未命名的渐变_51"/><linearGradient id="未命名的渐变_80-2" x1="231.89" y1="156.65" x2="229.05" y2="156.65" xlink:href="#未命名的渐变_80"/><linearGradient id="未命名的渐变_80-3" x1="227.02" y1="153.95" x2="224.18" y2="153.95" xlink:href="#未命名的渐变_80"/><linearGradient id="未命名的渐变_80-4" x1="222.63" y1="152.07" x2="219.79" y2="152.07" xlink:href="#未命名的渐变_80"/><linearGradient id="未命名的渐变_80-5" x1="233.4" y1="170.72" x2="231.98" y2="173.17" xlink:href="#未命名的渐变_80"/><linearGradient id="未命名的渐变_80-6" x1="232.82" y1="175.45" x2="231.41" y2="177.91" xlink:href="#未命名的渐变_80"/></defs><title>top4</title><circle cx="6.9" cy="29" r="1" fill="url(#未命名的渐变_80)"/><path d="M42.2,28.2l-.6.6L26.2,39.6a3.6,3.6,0,0,1-4.4,0L6.4,28.8a1.7,1.7,0,0,1-.6-.6,3.3,3.3,0,0,1-.9-2.3v4.7a3.5,3.5,0,0,0,1.5,2.9l11,7.7,4.4,3.1a3.9,3.9,0,0,0,4.4,0l4.4-3.1,11-7.7a3.5,3.5,0,0,0,1.5-2.9V25.9A3.3,3.3,0,0,1,42.2,28.2Z" fill="url(#未命名的渐变_51)"/><path d="M42.2,23.6l-.6.6-2.5,1.7L26.2,35a3.9,3.9,0,0,1-4.4,0L8.9,25.9,6.4,24.2l-.6-.6a3.6,3.6,0,0,1-.9-2.4v4.7a3.3,3.3,0,0,0,.9,2.3,1.7,1.7,0,0,0,.6.6L21.8,39.6a3.6,3.6,0,0,0,4.4,0L41.6,28.8l.6-.6a3.3,3.3,0,0,0,.9-2.3V21.2A3.6,3.6,0,0,1,42.2,23.6Z" fill="url(#未命名的渐变_24)"/><path d="M42.2,19.8l-.6.5-2.5,1.8L26.2,31.2a3.9,3.9,0,0,1-4.4,0L8.9,22.1,6.4,20.3l-.6-.5-.3-.5a3.5,3.5,0,0,0-.6,1.9,3.6,3.6,0,0,0,.9,2.4l.6.6,2.5,1.7L21.8,35a3.9,3.9,0,0,0,4.4,0l12.9-9.1,2.5-1.7.6-.6a3.6,3.6,0,0,0,.9-2.4,3.5,3.5,0,0,0-.6-1.9Z" fill="url(#未命名的渐变_9)"/><path d="M6.4,18.3h.1L21.8,7.5a3.9,3.9,0,0,1,4.4,0L41.5,18.3h.1c.4.3.7,1.6.9,2a7.2,7.2,0,0,0,.6-2.9,3.5,3.5,0,0,0-1.5-2.9h-.1L26.2,3.7a3.9,3.9,0,0,0-4.4,0L6.5,14.5H6.4a3.5,3.5,0,0,0-1.5,2.9,7.2,7.2,0,0,0,.6,2.9C5.7,19.9,6,18.6,6.4,18.3Z" fill="url(#未命名的渐变_21)"/><path d="M6.4,20.3l2.5,1.8,12.9,9.1a3.9,3.9,0,0,0,4.4,0l12.9-9.1,2.5-1.8.6-.5.3-.5a4.1,4.1,0,0,0-.9-1h-.1L26.2,7.5a3.9,3.9,0,0,0-4.4,0L6.5,18.3H6.4a4.1,4.1,0,0,0-.9,1l.3.5Z" fill="url(#未命名的渐变_51-2)"/><path d="M24,8.8a1.7,1.7,0,0,1,1,.3L39.5,19.3l-1.6,1.2L25,29.5a1.8,1.8,0,0,1-2,0l-12.9-9L8.5,19.3,23,9.1a1.7,1.7,0,0,1,1-.3m0-2a3.6,3.6,0,0,0-2.2.7L6.5,18.3H6.4a4.1,4.1,0,0,0-.9,1l.3.5.6.5,2.5,1.8,12.9,9.1a4.3,4.3,0,0,0,4.4,0l12.9-9.1,2.5-1.8.6-.5.3-.5a4.1,4.1,0,0,0-.9-1h-.1L26.2,7.5A3.6,3.6,0,0,0,24,6.8Z" fill="url(#未命名的渐变_70)"/><path d="M42.2,19.8l-.6.5-2.5,1.8L26.2,31.2a3.9,3.9,0,0,1-4.4,0L8.9,22.1,6.4,20.3l-.6-.5a3.6,3.6,0,0,1-.9-2.4v4.7a3.3,3.3,0,0,0,.9,2.3l.6.6L21.8,35.8a3.9,3.9,0,0,0,4.4,0L41.6,25l.6-.6a3.3,3.3,0,0,0,.9-2.3V17.4A3.6,3.6,0,0,1,42.2,19.8Z" fill="url(#未命名的渐变_51-3)"/><circle cx="29.7" cy="39.3" r="1" fill="url(#未命名的渐变_80-2)"/><circle cx="34.5" cy="36.4" r="1" fill="url(#未命名的渐变_80-3)"/><circle cx="38.3" cy="33.5" r="1" fill="url(#未命名的渐变_80-4)"/><circle cx="15.4" cy="33.5" r="1" fill="url(#未命名的渐变_80-5)"/><circle cx="11.6" cy="30.7" r="1" fill="url(#未命名的渐变_80-6)"/></svg>