<svg id="图层_1" data-name="图层 1" xmlns="http://www.w3.org/2000/svg" xmlns:xlink="http://www.w3.org/1999/xlink" viewBox="0 0 48 48"><defs><linearGradient id="未命名的渐变_51" x1="24" y1="33" x2="24" y2="44" gradientUnits="userSpaceOnUse"><stop offset="0.31" stop-color="#99ffdf"/><stop offset="1" stop-color="#0ec68d"/></linearGradient><linearGradient id="未命名的渐变_88" x1="24" y1="5" x2="24" y2="35" gradientUnits="userSpaceOnUse"><stop offset="0.31" stop-color="#99ffdf"/><stop offset="1" stop-color="#ddff4b"/></linearGradient><linearGradient id="未命名的渐变_25" x1="12.99" y1="0.92" x2="35.01" y2="39.08" gradientUnits="userSpaceOnUse"><stop offset="0.29" stop-color="#16d8a0"/><stop offset="0.71" stop-color="#92ffdd"/></linearGradient></defs><title>top5</title><path d="M27,36.1V34.9A2,2,0,0,0,25.1,33H22.9A2,2,0,0,0,21,34.9v1.2A2,2,0,0,1,19.1,38H14.9A2,2,0,0,0,13,39.9v2.2A2,2,0,0,0,14.9,44H33.1A2,2,0,0,0,35,42.1V39.9A2,2,0,0,0,33.1,38H28.9A2,2,0,0,1,27,36.1Z" fill="url(#未命名的渐变_51)"/><rect x="3" y="5" width="42" height="30" rx="4" fill="url(#未命名的渐变_88)"/><path d="M41,7a2,2,0,0,1,2,2V31a2,2,0,0,1-2,2H7a2,2,0,0,1-2-2V9A2,2,0,0,1,7,7H41m0-2H7A4,4,0,0,0,3,9V31a4,4,0,0,0,4,4H41a4,4,0,0,0,4-4V9a4,4,0,0,0-4-4Z" fill="url(#未命名的渐变_25)"/></svg>