<svg id="图层_1" data-name="图层 1" xmlns="http://www.w3.org/2000/svg" xmlns:xlink="http://www.w3.org/1999/xlink" viewBox="0 0 48 48"><defs><linearGradient id="未命名的渐变_76" x1="24" y1="2" x2="24" y2="46" gradientUnits="userSpaceOnUse"><stop offset="0" stop-color="#99ffdf"/><stop offset="1" stop-color="#0ec68d"/></linearGradient><linearGradient id="未命名的渐变_57" x1="39.56" y1="8.44" x2="8.44" y2="39.56" gradientUnits="userSpaceOnUse"><stop offset="0.31" stop-color="#16d8a0"/><stop offset="0.85" stop-color="#92ffdd"/></linearGradient><linearGradient id="未命名的渐变_76-2" y1="4" x2="24" y2="31.87" xlink:href="#未命名的渐变_76"/><linearGradient id="未命名的渐变_76-3" y1="40" x2="24" y2="44" xlink:href="#未命名的渐变_76"/><linearGradient id="未命名的渐变_76-4" y1="33" x2="24" y2="34" xlink:href="#未命名的渐变_76"/><linearGradient id="未命名的渐变_76-5" y1="39" x2="24" y2="40" xlink:href="#未命名的渐变_76"/><linearGradient id="未命名的渐变_76-6" y1="27" x2="24" y2="28" xlink:href="#未命名的渐变_76"/><linearGradient id="未命名的渐变_76-7" y1="21" x2="24" y2="22" xlink:href="#未命名的渐变_76"/><linearGradient id="未命名的渐变_76-8" y1="15" x2="24" y2="16" xlink:href="#未命名的渐变_76"/><linearGradient id="未命名的渐变_76-9" y1="9" x2="24" y2="10" xlink:href="#未命名的渐变_76"/><linearGradient id="未命名的渐变_47" x1="24.39" y1="18.84" x2="24.39" y2="33.94" gradientUnits="userSpaceOnUse"><stop offset="0" stop-color="#99ffdf"/><stop offset="1" stop-color="#e7ff36"/></linearGradient><linearGradient id="未命名的渐变_47-2" x1="24.57" y1="20.84" x2="24.57" y2="44" xlink:href="#未命名的渐变_47"/></defs><title>top6</title><circle cx="24" cy="24" r="22" fill="url(#未命名的渐变_76)"/><path d="M24,4A20,20,0,1,1,4,24,20.1,20.1,0,0,1,24,4m0-2A22,22,0,1,0,46,24,21.9,21.9,0,0,0,24,2Z" fill="url(#未命名的渐变_57)"/><path d="M16,18.8a4.8,4.8,0,0,1,3.7,2.1l6.2,8.8A2.5,2.5,0,0,0,28,31h0a2.6,2.6,0,0,0,2-1.3l1.3-1.8a6,6,0,0,1,3.9-2.4,5.6,5.6,0,0,1,4.3,1.2l3.7,3A21.2,21.2,0,0,0,44,24,20,20,0,0,0,4,24a20.6,20.6,0,0,0,1.6,7.9l6.9-10.8A4.7,4.7,0,0,1,16,18.8Z" fill="url(#未命名的渐变_76-2)"/><path d="M24,44a20.1,20.1,0,0,0,12-4H12A20.1,20.1,0,0,0,24,44Z" fill="url(#未命名的渐变_76-3)"/><path d="M6.7,34H41.3a4.7,4.7,0,0,0,.5-1H6.2A4.7,4.7,0,0,0,6.7,34Z" fill="url(#未命名的渐变_76-4)"/><path d="M12,40H36l1.2-1H10.8Z" fill="url(#未命名的渐变_76-5)"/><path d="M4.4,28H43.6c.1-.3.1-.7.2-1H4.2C4.3,27.3,4.3,27.7,4.4,28Z" fill="url(#未命名的渐变_76-6)"/><path d="M4.1,22H43.9c0-.3-.1-.7-.1-1H4.2C4.2,21.3,4.1,21.7,4.1,22Z" fill="url(#未命名的渐变_76-7)"/><path d="M5.7,16H42.3a4.7,4.7,0,0,0-.5-1H6.2A4.7,4.7,0,0,0,5.7,16Z" fill="url(#未命名的渐变_76-8)"/><path d="M37.2,9H10.8L9.7,10H38.3Z" fill="url(#未命名的渐变_76-9)"/><path d="M39.5,26.7a5.6,5.6,0,0,0-4.3-1.2,6,6,0,0,0-3.9,2.4L30,29.7A2.6,2.6,0,0,1,28,31h0a2.5,2.5,0,0,1-2.1-1.3l-6.2-8.8A4.8,4.8,0,0,0,16,18.8a4.7,4.7,0,0,0-3.5,2.3L5.6,31.9a12.8,12.8,0,0,0,1.1,2l7.5-11.7a2.6,2.6,0,0,1,1.9-1.4,2.7,2.7,0,0,1,2,1.3l6.2,8.8A4.6,4.6,0,0,0,28,33h0a4.8,4.8,0,0,0,3.7-2.1L33,29.1a3.6,3.6,0,0,1,2.4-1.6,4.1,4.1,0,0,1,2.9.8l4.2,3.4c.2-.7.5-1.4.7-2Z" fill="url(#未命名的渐变_47)"/><g opacity="0.6"><path d="M35.4,27.5A3.6,3.6,0,0,0,33,29.1l-1.3,1.8A4.8,4.8,0,0,1,28,33h0a4.6,4.6,0,0,1-3.7-2.1l-6.2-8.8a2.7,2.7,0,0,0-2-1.3,2.6,2.6,0,0,0-1.9,1.4L6.7,33.9a20,20,0,0,0,35.8-2.2l-4.2-3.4A4.1,4.1,0,0,0,35.4,27.5Z" fill="url(#未命名的渐变_47-2)"/></g></svg>