<svg id="图层_1" data-name="图层 1" xmlns="http://www.w3.org/2000/svg" xmlns:xlink="http://www.w3.org/1999/xlink" viewBox="0 0 48 48"><defs><linearGradient id="未命名的渐变_51" x1="-16" y1="-14.95" x2="0.83" y2="1.87" gradientTransform="matrix(1, 0, 0, -1, 21, 28.05)" gradientUnits="userSpaceOnUse"><stop offset="0.31" stop-color="#99ffdf"/><stop offset="1" stop-color="#0ec68d"/></linearGradient><linearGradient id="未命名的渐变_98" x1="23" y1="34" x2="5" y2="34" gradientUnits="userSpaceOnUse"><stop offset="0.28" stop-color="#d8f466"/><stop offset="0.71" stop-color="#92ffdd"/></linearGradient><linearGradient id="未命名的渐变_51-2" x1="-252.15" y1="-16.6" x2="-240.58" y2="3.43" gradientTransform="translate(-212 28) rotate(180)" xlink:href="#未命名的渐变_51"/><linearGradient id="未命名的渐变_26" x1="25" x2="43" xlink:href="#未命名的渐变_98"/><linearGradient id="未命名的渐变_51-3" x1="-276" y1="5" x2="-259.17" y2="21.83" gradientTransform="matrix(-1, 0, 0, 1, -233, 0)" xlink:href="#未命名的渐变_51"/><linearGradient id="未命名的渐变_26-2" x1="25" y1="14" x2="43" y2="14" xlink:href="#未命名的渐变_98"/><linearGradient id="未命名的渐变_51-4" x1="7.85" y1="3.35" x2="19.42" y2="23.38" gradientTransform="matrix(1, 0, 0, 1, 0, 0)" xlink:href="#未命名的渐变_51"/><linearGradient id="未命名的渐变_26-3" y1="14" y2="14" xlink:href="#未命名的渐变_98"/></defs><title>top7</title><path d="M19,25H9a4,4,0,0,0-4,4V43H19a4,4,0,0,0,4-4V29A4,4,0,0,0,19,25Z" fill="url(#未命名的渐变_51)"/><path d="M19,27a2,2,0,0,1,2,2V39a2,2,0,0,1-2,2H7V29a2,2,0,0,1,2-2H19m0-2H9a4,4,0,0,0-4,4V43H19a4,4,0,0,0,4-4V29a4,4,0,0,0-4-4Z" fill="url(#未命名的渐变_98)"/><path d="M29,25H39a4,4,0,0,1,4,4V43H29a4,4,0,0,1-4-4V29A4,4,0,0,1,29,25Z" fill="url(#未命名的渐变_51-2)"/><path d="M39,27a2,2,0,0,1,2,2V41H29a2,2,0,0,1-2-2V29a2,2,0,0,1,2-2H39m0-2H29a4,4,0,0,0-4,4V39a4,4,0,0,0,4,4H43V29a4,4,0,0,0-4-4Z" fill="url(#未命名的渐变_26)"/><path d="M29,23H39a4,4,0,0,0,4-4V5H29a4,4,0,0,0-4,4V19A4,4,0,0,0,29,23Z" fill="url(#未命名的渐变_51-3)"/><path d="M41,7V19a2,2,0,0,1-2,2H29a2,2,0,0,1-2-2V9a2,2,0,0,1,2-2H41m2-2H29a4,4,0,0,0-4,4V19a4,4,0,0,0,4,4H39a4,4,0,0,0,4-4V5Z" fill="url(#未命名的渐变_26-2)"/><path d="M19,23H9a4,4,0,0,1-4-4V5H19a4,4,0,0,1,4,4V19A4,4,0,0,1,19,23Z" fill="url(#未命名的渐变_51-4)"/><path d="M19,7a2,2,0,0,1,2,2V19a2,2,0,0,1-2,2H9a2,2,0,0,1-2-2V7H19m0-2H5V19a4,4,0,0,0,4,4H19a4,4,0,0,0,4-4V9a4,4,0,0,0-4-4Z" fill="url(#未命名的渐变_26-3)"/></svg>