<svg id="图层_1" data-name="图层 1" xmlns="http://www.w3.org/2000/svg" viewBox="0 0 32 32"><title>virus</title><path d="M25,1H7A4,4,0,0,0,3,5V27a4,4,0,0,0,4,4H25a4,4,0,0,0,4-4V5A4,4,0,0,0,25,1Zm0,15.5H23a6.1,6.1,0,0,1-.8,2.6,8.3,8.3,0,0,1-1.6,2.1h0L21.7,23a1,1,0,0,1-.3,1.4,1,1,0,0,1-1.4-.3l-1-1.7h-.1a6.7,6.7,0,0,1-5.2.3h0l-.9,1.8a1,1,0,0,1-1.4.4,1.1,1.1,0,0,1-.4-1.3l.9-1.8H12a7.3,7.3,0,0,1-2.9-4.4h-2a1,1,0,0,1-1.1-1,1,1,0,0,1,1-1H9a6.1,6.1,0,0,1,.8-2.6,8.3,8.3,0,0,1,1.6-2.1h0L10.3,9a1,1,0,0,1,.3-1.4,1,1,0,0,1,1.4.3l1,1.7h.1a6.7,6.7,0,0,1,5.2-.3h0l.9-1.8a1,1,0,0,1,1.4-.4A1.1,1.1,0,0,1,21,8.4l-.9,1.8H20a7.3,7.3,0,0,1,2.9,4.4h2a1,1,0,0,1,1.1,1A1,1,0,0,1,25,16.5Z" fill="#2267f2"/></svg>